<svg width="1440" height="6455" viewBox="0 0 1440 6455" fill="none" xmlns="http://www.w3.org/2000/svg">
<rect width="1440" height="6455" fill="#242323"/>
<g clip-path="url(#clip0_107_127)">
<rect width="1440" height="6455" fill="#002E21"/>
<path d="M1076.47 864.603V846.206H1093.58V858.533H1099.01H1112.48V818.368H1137.82V817.251V816.879V811.414V811.065V805.576V805.227V799.762V799.39V793.924V793.552H1139.46V792.575H1142.83V791.389H1151.35V792.575H1153.93V791.389H1157.06V792.575H1171.61V793.552H1173.26V793.924V799.39V799.762V805.227V805.576V811.065V811.414V812.949H1192.42V801.297H1195.45V812.949H1199.73V801.297H1202.76V812.949H1209.36V815.879V816.135V818.507V818.763V821.158V821.414V823.438H1220.18V857.277H1229.88V856.858V852.486V851.439V849.114V844.764V841.369V837.02V833.648V829.554H1236.97V829.205V827.461V826.554V824.81V823.926V822.182V821.275V819.53V818.623V816.879V815.972V814.228V813.344V811.6V810.693V808.948V808.041V806.297V805.39V803.646V802.762V801.018V800.111V798.366V797.459V795.715V794.808V793.064V792.18V790.436V789.529V787.785V786.877V785.133V784.226V782.482V781.575V779.831V778.947V777.203V776.295V774.551V773.644V771.9V770.993V769.249V768.365V766.621V765.713V763.388H1242.31V759.899H1250.19V761.667H1255.15V759.411H1257.41V753.294H1258.3V759.411H1259.51V753.294H1260.4V759.411H1265.59V762.271H1267.91V763.388H1269.91H1275.26V765.713V766.621V768.365V769.249V770.993V771.9V773.644V774.551V776.295V777.203V778.947V779.831V781.575V782.482V784.226V785.133V786.877V787.785V789.529V790.436V792.18V793.064V794.808V795.715V797.459V798.366V800.111V801.018V802.762V803.646V805.39V806.297V808.041V808.948V810.693V811.6V813.344V814.228V815.972V816.879V818.623V819.53V821.275V822.182V823.926V824.81V826.554V827.461V829.205V829.554H1288.76V790.366H1293.31V781.226H1310.54V785.249H1314.55V790.366H1315.94H1319.17V819.228H1325.31V807.832H1344.14V829.554H1348.11H1356.89V798.529H1370.95V764.853H1394.73V752.062H1428.63V743.387H1430.63V752.062H1433.38V743.387H1435.38V752.062H1448.72V763.574H1452.21V764.853H1458.2V769.179V769.551V773.109V773.481V777.016V777.412V780.947V781.319V784.877V785.249V788.808V789.18V792.715V793.087V796.645V797.018V800.576V800.948V804.483V804.878V808.414V808.786V812.344V812.716V816.274V816.647V820.182V820.554V824.112V824.484V828.043V828.415V831.95V832.345V835.88V836.252V838.438H1459.5V832.787H1460.85V830.205H1461.69V832.787H1466.25V835.81H1468.29V838.438H1473.21V836.043V834.717V831.112V829.787V826.182V824.88V821.275V819.949V816.344V815.019V811.414V810.088V806.483V805.158V801.553V800.227V796.622V795.32V791.715V790.389V786.784V785.459V781.854V780.528V776.923V775.598V771.993V770.667V767.062V765.76V762.155V760.829V758.527V757.225V755.899V752.294V750.968V747.364V746.038V741.387H1490.85V719.502H1503.21V697.035H1504.15V719.502H1507.73V703.989H1510.2V697.035H1511.22V703.989H1521.07V716.339H1523.52V719.502H1534.04V741.387H1542.24H1551.66V770.737H1561.09V762.388V761.643V750.224V749.48V738.061V737.317V725.897V725.153V713.734V712.99V701.57V700.826V689.407V688.663V677.243V676.499V665.08V664.336H1564.52V662.266H1594.87V659.777H1601.38V662.266H1606.76V659.777H1624.57V662.266H1631.57V664.336H1635V665.08V676.499V677.243V688.663V689.407V700.826V701.57V712.99V713.734V725.153V725.897V737.317V738.061V749.48V750.224V761.643V762.388V773.807V774.551V785.97V786.715V798.134V798.878V810.297V811.042V822.461V823.205V834.624V835.369V846.788V847.532V858.951V859.695V871.115V871.859V883.278V884.022V895.442V896.186V907.605V908.349V918.745H1093.58H1087.6H1051V864.603H1076.47Z" fill="#002E21"/>
<g filter="url(#filter0_f_107_127)">
<circle cx="71.5" cy="1441.5" r="260.5" fill="#018543"/>
</g>
<g filter="url(#filter1_f_107_127)">
<circle cx="71.5" cy="3811.5" r="260.5" fill="#018543"/>
</g>
<g filter="url(#filter2_f_107_127)">
<circle cx="1513.5" cy="2390.5" r="260.5" fill="#018543"/>
</g>
<g filter="url(#filter3_f_107_127)">
<circle cx="1513.5" cy="4760.5" r="260.5" fill="#018543"/>
</g>
<g filter="url(#filter4_f_107_127)">
<circle cx="720" cy="5979" r="342" fill="#018543"/>
</g>
<g filter="url(#filter5_f_107_127)">
<circle cx="63.5" cy="310.5" r="170.5" fill="#018543"/>
</g>
<g clip-path="url(#clip1_107_127)">
<path d="M557.512 892.377V842.765H532.481V825.901H515.694V837.201H510.347H497.14V800.381H472.258V799.336V799.017V794.006V793.665V788.655V788.314V783.304V782.984V777.952V777.633H470.639V776.737H467.337V775.629H458.944V776.737H456.409V775.629H453.363V776.737H439.069V777.633H437.45V777.952V782.984V783.304V788.314V788.655V793.665V794.006V795.413H418.639V784.732H415.657V795.413H411.439V784.732H408.457V795.413H402.002V798.078V798.313V800.509V800.743V802.939V803.174V805.029H391.35V836.028H381.828V835.644V831.657V830.677V828.566V824.558V821.467V817.48V814.367V810.636H374.862V810.316V808.717V807.886V806.287V805.455V803.856V803.046V801.447V800.616V799.017V798.185V796.586V795.755V794.156V793.345V791.746V790.915V789.316V788.484V786.885V786.054V784.455V783.624V782.025V781.214V779.615V778.784V777.185V776.353V774.754V773.923V772.324V771.514V769.915V769.083V767.484V766.653V765.054V764.222V762.623V761.813V760.214V759.383V757.784V756.952V755.353V754.522V752.923V752.113V749.981H369.622V746.783H361.91V748.403H357.01V746.335H354.816V740.706H353.943V746.335H352.729V740.706H351.877V746.335H346.764V748.936H344.506V749.981H342.546H337.284V752.113V752.923V754.522V755.353V756.952V757.784V759.383V760.214V761.813V762.623V764.222V765.054V766.653V767.484V769.083V769.915V771.514V772.324V773.923V774.754V776.353V777.185V778.784V779.615V781.214V782.025V783.624V784.455V786.054V786.885V788.484V789.316V790.915V791.746V793.345V794.156V795.755V796.586V798.185V799.017V800.616V801.447V803.046V803.856V805.455V806.287V807.886V808.717V810.316V810.636H324.034V774.712H319.56V766.312H302.625V770.021H298.705V774.712H297.342H294.146V801.17H288.118V790.723H269.648V810.636H265.75H257.122V782.195H243.297V751.324H219.949V739.598H186.674V731.624H184.714V739.598H181.987V731.624H180.049V739.598H166.948V750.13H163.518V751.324H157.638V755.289V755.63V758.871V759.233V762.474V762.815V766.077V766.418V769.659V770.021V773.262V773.603V776.865V777.206V780.468V780.809V784.05V784.412V787.653V787.994V791.256V791.597V794.838V795.2V798.441V798.782V802.044V802.385V805.647V805.988V809.229V809.591V812.832V813.173V816.435V816.776V818.78H156.339V813.599H155.039V811.233H154.209V813.599H149.714V816.371H147.711V818.78H142.876V816.584V815.369V812.064V810.849V807.545V806.329V803.025V801.809V798.505V797.311V794.006V792.791V789.487V788.271V784.967V783.751V780.447V779.232V775.927V774.712V771.407V770.213V766.909V765.693V762.389V761.174V757.869V756.654V753.349V752.134V748.829V747.614V745.503V744.309V743.116V739.811V738.596V735.291V734.076V729.791H125.578V709.728H113.435V689.133H112.519V709.728H109.004V695.508H106.576V689.133H105.575V695.508H95.9031V706.85H93.4959V709.728H83.1641V729.791H75.0904H65.845V756.718H56.5996V749.064V748.36V737.913V737.21V726.763V726.06V715.613V714.909V704.462V703.759V693.312V692.63V682.162V681.479V671.011V670.329V659.861V659.179H53.2338V657.281H23.4313V655H17.0405V657.281H11.7361V655H-5.7534V657.281H-12.6342V659.179H-16V659.861V670.329V671.011V681.479V682.162V692.63V693.312V703.759V704.462V714.909V715.613V726.06V726.763V737.21V737.913V748.36V749.064V759.511V760.214V770.661V771.365V781.811V782.515V792.962V793.644V804.112V804.794V815.262V815.945V826.413V827.095V837.563V838.245V848.713V849.396V859.864V860.546V871.014V871.696V882.165" fill="#023725"/>
</g>
</g>
<defs>
<filter id="filter0_f_107_127" x="-1081.27" y="288.73" width="2305.54" height="2305.54" filterUnits="userSpaceOnUse" color-interpolation-filters="sRGB">
<feFlood flood-opacity="0" result="BackgroundImageFix"/>
<feBlend mode="normal" in="SourceGraphic" in2="BackgroundImageFix" result="shape"/>
<feGaussianBlur stdDeviation="446.135" result="effect1_foregroundBlur_107_127"/>
</filter>
<filter id="filter1_f_107_127" x="-1081.27" y="2658.73" width="2305.54" height="2305.54" filterUnits="userSpaceOnUse" color-interpolation-filters="sRGB">
<feFlood flood-opacity="0" result="BackgroundImageFix"/>
<feBlend mode="normal" in="SourceGraphic" in2="BackgroundImageFix" result="shape"/>
<feGaussianBlur stdDeviation="446.135" result="effect1_foregroundBlur_107_127"/>
</filter>
<filter id="filter2_f_107_127" x="360.73" y="1237.73" width="2305.54" height="2305.54" filterUnits="userSpaceOnUse" color-interpolation-filters="sRGB">
<feFlood flood-opacity="0" result="BackgroundImageFix"/>
<feBlend mode="normal" in="SourceGraphic" in2="BackgroundImageFix" result="shape"/>
<feGaussianBlur stdDeviation="446.135" result="effect1_foregroundBlur_107_127"/>
</filter>
<filter id="filter3_f_107_127" x="360.73" y="3607.73" width="2305.54" height="2305.54" filterUnits="userSpaceOnUse" color-interpolation-filters="sRGB">
<feFlood flood-opacity="0" result="BackgroundImageFix"/>
<feBlend mode="normal" in="SourceGraphic" in2="BackgroundImageFix" result="shape"/>
<feGaussianBlur stdDeviation="446.135" result="effect1_foregroundBlur_107_127"/>
</filter>
<filter id="filter4_f_107_127" x="-514.27" y="4744.73" width="2468.54" height="2468.54" filterUnits="userSpaceOnUse" color-interpolation-filters="sRGB">
<feFlood flood-opacity="0" result="BackgroundImageFix"/>
<feBlend mode="normal" in="SourceGraphic" in2="BackgroundImageFix" result="shape"/>
<feGaussianBlur stdDeviation="446.135" result="effect1_foregroundBlur_107_127"/>
</filter>
<filter id="filter5_f_107_127" x="-691" y="-444" width="1509" height="1509" filterUnits="userSpaceOnUse" color-interpolation-filters="sRGB">
<feFlood flood-opacity="0" result="BackgroundImageFix"/>
<feBlend mode="normal" in="SourceGraphic" in2="BackgroundImageFix" result="shape"/>
<feGaussianBlur stdDeviation="292" result="effect1_foregroundBlur_107_127"/>
</filter>
<clipPath id="clip0_107_127">
<rect width="1440" height="6455" fill="white"/>
</clipPath>
<clipPath id="clip1_107_127">
<rect width="574" height="200" fill="white" transform="translate(-16 655)"/>
</clipPath>
</defs>
</svg>
