<svg width="375" height="960" viewBox="0 0 375 960" fill="none" xmlns="http://www.w3.org/2000/svg">
<rect width="375" height="960" fill="#242323"/>
<g clip-path="url(#clip0_107_127)">
<rect width="375" height="1611" transform="translate(0 -317)" fill="#002E21"/>
<g style="mix-blend-mode:darken" opacity="0.4" clip-path="url(#clip1_107_127)">
<path style="mix-blend-mode:overlay" d="M47.2063 999.548V883.678H86.3352V999.548" fill="url(#paint0_linear_107_127)"/>
<path d="M-697.195 629.145H-655.279V684.699H-645.193V592.641H-577.906V657.697H-565.674V684.699H-545.479V502.2H-479.343V457.699H-389.295V598.311H-367.021V424.074H-340.699V417.296H-324.287V424.074H-299.889V499.697H-230.213V616.962H-211.478V586.306H-188.541V575.496H-183.188V556.956H-179.074V575.496H-172.792V556.956H-168.655V575.496H-165.094V586.306H-157.065V598.068H-54.7633V473.36H-25.787V464.344H-5.9682V435.969H25.3969L32.1432 442.393V447.975H46.6093V464.344H57.9564V710.659H66.8041V684.876H70.0999V600.748H79.5449V591.245H105.469V600.748H157.161V292.167H185.209V285.323H240.861V292.167H282.688V696.926H292V681.199H302.485V696.926H311.465V614.105H320.136V606.662H344.047V614.105H417.129V771.973H426.264V376.849H461.124V362.584H519.652V376.849H582.603V657.875H625.869V624.405H631.443V617.117H640.379V611.336H642.104V617.117H645.4V611.336H647.147V617.117H651.306V624.405H661.26V565.063H690.413V479.23H700.654V466.604H722.729L727.484 471.122V474.644H741.552V479.23H753.032V513.319H801.12V494.979H861.107" fill="url(#paint1_linear_107_127)"/>
<path d="M86.3359 999.548V308.603H254.199V999.548" fill="url(#paint2_linear_107_127)"/>
<path style="mix-blend-mode:overlay" d="M237.918 323.909H178.837V319.745H237.918V323.909ZM237.918 331.95H178.837V336.114H237.918V331.95ZM237.918 344.155H178.837V348.319H237.918V344.155ZM237.918 356.36H178.837V360.524H237.918V356.36ZM237.918 368.565H178.837V372.729H237.918V368.565ZM237.918 380.77H178.837V384.934H237.918V380.77ZM237.918 392.975H178.837V397.139H237.918V392.975ZM237.918 405.18H178.837V409.344H237.918V405.18ZM237.918 417.385H178.837V421.549H237.918V417.385ZM237.918 429.59H178.837V433.754H237.918V429.59ZM237.918 441.795H178.837V445.959H237.918V441.795ZM237.918 454H178.837V458.164H237.918V454ZM237.918 466.205H178.837V470.369H237.918V466.205ZM237.918 478.41H178.837V482.574H237.918V478.41ZM237.918 490.615H178.837V494.779H237.918V490.615ZM237.918 502.82H178.837V506.984H237.918V502.82ZM237.918 515.025H178.837V519.189H237.918V515.025ZM237.918 527.23H178.837V531.394H237.918V527.23ZM237.918 539.435H178.837V543.599H237.918V539.435ZM237.918 551.64H178.837V555.804H237.918V551.64ZM237.918 563.845H178.837V568.009H237.918V563.845ZM237.918 576.05H178.837V580.214H237.918V576.05ZM237.918 588.255H178.837V592.419H237.918V588.255ZM237.918 600.46H178.837V604.624H237.918V600.46ZM237.918 612.665H178.837V616.829H237.918V612.665ZM237.918 624.87H178.837V629.034H237.918V624.87ZM237.918 637.075H178.837V641.239H237.918V637.075ZM237.918 649.28H178.837V653.444H237.918V649.28ZM237.918 661.485H178.837V665.649H237.918V661.485ZM237.918 673.69H178.837V677.854H237.918V673.69ZM237.918 685.895H178.837V690.059H237.918V685.895ZM237.918 698.1H178.837V702.264H237.918V698.1ZM237.918 710.305H178.837V714.469H237.918V710.305ZM237.918 722.51H178.837V726.674H237.918V722.51ZM237.918 734.715H178.837V738.879H237.918V734.715ZM237.918 746.92H178.837V751.084H237.918V746.92ZM237.918 759.125H178.837V763.289H237.918V759.125ZM237.918 771.33H178.837V775.495H237.918V771.33ZM237.918 783.535H178.837V787.699H237.918V783.535ZM237.918 795.74H178.837V799.904H237.918V795.74ZM237.918 807.945H178.837V812.11H237.918V807.945ZM237.918 820.15H178.837V824.315H237.918V820.15ZM237.918 832.355H178.837V836.52H237.918V832.355ZM237.918 844.56H178.837V848.725H237.918V844.56ZM237.918 856.765H178.837V860.93H237.918V856.765ZM237.918 868.97H178.837V873.135H237.918V868.97ZM237.918 881.175H178.837V885.34H237.918V881.175ZM237.918 893.38H178.837V897.545H237.918V893.38ZM237.918 905.585H178.837V909.75H237.918V905.585ZM237.918 917.79H178.837V921.955H237.918V917.79ZM237.918 929.995H178.837V934.16H237.918V929.995ZM237.918 942.2H178.837V946.365H237.918V942.2ZM237.918 954.405H178.837V958.57H237.918V954.405ZM237.918 966.61H178.837V970.775H237.918V966.61ZM237.918 978.815H178.837V982.98H237.918V978.815ZM161.296 319.944H102.216V324.109H161.296V319.944ZM161.296 332.149H102.216V336.314H161.296V332.149ZM161.296 344.354H102.216V348.519H161.296V344.354ZM161.296 356.559H102.216V360.724H161.296V356.559ZM161.296 368.764H102.216V372.929H161.296V368.764ZM161.296 380.969H102.216V385.134H161.296V380.969ZM161.296 393.174H102.216V397.339H161.296V393.174ZM161.296 405.379H102.216V409.544H161.296V405.379ZM161.296 417.584H102.216V421.749H161.296V417.584ZM161.296 429.789H102.216V433.954H161.296V429.789ZM161.296 441.994H102.216V446.159H161.296V441.994ZM161.296 454.199H102.216V458.364H161.296V454.199ZM161.296 466.404H102.216V470.569H161.296V466.404ZM161.296 478.609H102.216V482.774H161.296V478.609ZM161.296 490.814H102.216V494.979H161.296V490.814ZM161.296 503.019H102.216V507.184H161.296V503.019ZM161.296 515.224H102.216V519.389H161.296V515.224ZM161.296 527.429H102.216V531.594H161.296V527.429ZM161.296 539.634H102.216V543.799H161.296V539.634ZM161.296 551.839H102.216V556.004H161.296V551.839ZM161.296 564.044H102.216V568.209H161.296V564.044ZM161.296 576.249H102.216V580.414H161.296V576.249ZM161.296 588.454H102.216V592.619H161.296V588.454ZM161.296 600.659H102.216V604.824H161.296V600.659ZM161.296 612.864H102.216V617.029H161.296V612.864ZM161.296 625.069H102.216V629.234H161.296V625.069ZM161.296 637.274H102.216V641.439H161.296V637.274ZM161.296 649.479H102.216V653.644H161.296V649.479ZM161.296 661.684H102.216V665.849H161.296V661.684ZM161.296 673.889H102.216V678.054H161.296V673.889ZM161.296 686.094H102.216V690.259H161.296V686.094ZM161.296 698.299H102.216V702.464H161.296V698.299ZM161.296 710.504H102.216V714.669H161.296V710.504ZM161.296 722.709H102.216V726.874H161.296V722.709ZM161.296 734.914H102.216V739.079H161.296V734.914ZM161.296 747.12H102.216V751.284H161.296V747.12ZM161.296 759.324H102.216V763.489H161.296V759.324ZM161.296 771.53H102.216V775.694H161.296V771.53ZM161.296 783.735H102.216V787.899H161.296V783.735ZM161.296 795.94H102.216V800.104H161.296V795.94ZM161.296 808.145H102.216V812.309H161.296V808.145ZM161.296 820.35H102.216V824.514H161.296V820.35ZM161.296 832.555H102.216V836.719H161.296V832.555ZM161.296 844.76H102.216V848.924H161.296V844.76ZM161.296 856.965H102.216V861.129H161.296V856.965ZM161.296 869.17H102.216V873.334H161.296V869.17ZM161.296 881.375H102.216V885.539H161.296V881.375ZM161.296 893.58H102.216V897.744H161.296V893.58ZM161.296 905.785H102.216V909.949H161.296V905.785ZM161.296 917.99H102.216V922.154H161.296V917.99ZM161.296 930.195H102.216V934.359H161.296V930.195ZM161.296 942.4H102.216V946.564H161.296V942.4ZM161.296 954.605H102.216V958.769H161.296V954.605ZM161.296 966.81H102.216V970.974H161.296V966.81ZM161.296 979.015H102.216V983.179H161.296V979.015Z" fill="url(#paint3_linear_107_127)"/>
<path d="M200.183 467.135H183.881V469.351H200.183V467.135Z" fill="#FFD8C1"/>
<path d="M221.108 467.135H215.976V469.351H221.108V467.135Z" fill="#FFD8C1"/>
<path d="M117.701 320.719H112.569V322.935H117.701V320.719Z" fill="#FFD8C1"/>
<path d="M229.69 467.135H226.77V469.351H229.69V467.135Z" fill="#FFD8C1"/>
<path d="M123.386 320.719H120.466V322.935H123.386V320.719Z" fill="#FFD8C1"/>
<path d="M126.061 735.579H120.929V737.794H126.061V735.579Z" fill="#FFD8C1"/>
<path d="M131.723 735.579H128.804V737.794H131.723V735.579Z" fill="#FFD8C1"/>
<path d="M211.021 711.169H195.161V713.384H211.021V711.169Z" fill="#FFD8C1"/>
<path d="M151.498 491.546H135.639V493.761H151.498V491.546Z" fill="#FFD8C1"/>
<path d="M181.383 320.719H176.627V322.935H181.383V320.719Z" fill="#FFD8C1"/>
<path d="M217.149 345.129H213.875V347.344H217.149V345.129Z" fill="#FFD8C1"/>
<path d="M206.797 345.129H195.029V347.344H206.797V345.129Z" fill="#FFD8C1"/>
<path d="M133.206 345.129H127.787V347.344H133.206V345.129Z" fill="#FFD8C1"/>
<path d="M155.526 430.542H142.94V432.758H155.526V430.542Z" fill="#FFD8C1"/>
<path d="M129.468 601.346H111.463V603.561H129.468V601.346Z" fill="#FFD8C1"/>
<path d="M143.802 369.518H138.649V371.733H143.802V369.518Z" fill="#FFD8C1"/>
<path d="M227.126 406.133H224.206V408.348H227.126V406.133Z" fill="#FFD8C1"/>
<path d="M229.36 528.138H224.206V530.353H229.36V528.138Z" fill="#FFD8C1"/>
<path d="M212.991 589.141H207.837V591.356H212.991V589.141Z" fill="#FFD8C1"/>
<path d="M147.384 576.958H142.252V579.173H147.384V576.958Z" fill="#FFD8C1"/>
<path d="M138.427 576.958H135.507V579.173H138.427V576.958Z" fill="#FFD8C1"/>
<path d="M225.666 564.753H222.746V566.968H225.666V564.753Z" fill="#FFD8C1"/>
<path d="M140.748 430.542H135.616V432.758H140.748V430.542Z" fill="#FFD8C1"/>
<path d="M212.084 503.75H206.93V505.965H212.084V503.75Z" fill="#FFD8C1"/>
<path d="M160.635 650.166H155.481V652.381H160.635V650.166Z" fill="#FFD8C1"/>
<path d="M203.102 503.75H200.183V505.965H203.102V503.75Z" fill="#FFD8C1"/>
<path d="M149.442 369.518H146.522V371.733H149.442V369.518Z" fill="#FFD8C1"/>
<path d="M203.102 434.596H200.183V436.811H203.102V434.596Z" fill="#FFD8C1"/>
<path d="M127.477 406.133H111.618V408.348H127.477V406.133Z" fill="#FFD8C1"/>
<path d="M199.74 589.141H183.881V591.356H199.74V589.141Z" fill="#FFD8C1"/>
<path d="M219.692 377.115H214.937V379.33H219.692V377.115Z" fill="#FFD8C1"/>
<path d="M135.197 833.175H118.896V835.39H135.197V833.175Z" fill="#FFD8C1"/>
<path d="M156.123 833.175H150.991V835.39H156.123V833.175Z" fill="#FFD8C1"/>
<path d="M164.725 833.175H161.806V835.39H164.725V833.175Z" fill="#FFD8C1"/>
<path d="M116.395 686.759H111.64V688.974H116.395V686.759Z" fill="#FFD8C1"/>
<path d="M152.161 711.169H148.888V713.384H152.161V711.169Z" fill="#FFD8C1"/>
<path d="M141.789 711.169H130.044V713.384H141.789V711.169Z" fill="#FFD8C1"/>
<path d="M164.35 894.178H159.219V896.393H164.35V894.178Z" fill="#FFD8C1"/>
<path d="M148.004 955.203H142.85V957.418H148.004V955.203Z" fill="#FFD8C1"/>
<path d="M160.679 930.792H157.759V933.008H160.679V930.792Z" fill="#FFD8C1"/>
<path d="M147.097 869.79H141.944V872.005H147.097V869.79Z" fill="#FFD8C1"/>
<path d="M138.117 869.79H135.197V872.005H138.117V869.79Z" fill="#FFD8C1"/>
<path d="M138.117 800.636H135.197V802.851H138.117V800.636Z" fill="#FFD8C1"/>
<path d="M134.755 955.203H118.896V957.418H134.755V955.203Z" fill="#FFD8C1"/>
<path d="M154.727 743.177H149.972V745.392H154.727V743.177Z" fill="#FFD8C1"/>
<path d="M141.457 528.138H138.184V530.353H141.457V528.138Z" fill="#FFD8C1"/>
<path d="M131.105 528.138H119.338V530.353H131.105V528.138Z" fill="#FFD8C1"/>
<path d="M122.854 454.931H111.109V457.146H122.854V454.931Z" fill="#FFD8C1"/>
<path d="M150.702 650.166H138.957V652.381H150.702V650.166Z" fill="#FFD8C1"/>
<path d="M151.942 528.138H146.522V530.353H151.942V528.138Z" fill="#FFD8C1"/>
<path d="M201.576 735.579H196.422V737.794H201.576V735.579Z" fill="#FFD8C1"/>
<path d="M207.218 735.579H204.299V737.794H207.218V735.579Z" fill="#FFD8C1"/>
<path d="M235.353 906.383H219.493V908.598H235.353V906.383Z" fill="#FFD8C1"/>
<path d="M217.061 759.967H211.642V762.182H217.061V759.967Z" fill="#FFD8C1"/>
<path d="M230.199 845.38H217.613V847.595H230.199V845.38Z" fill="#FFD8C1"/>
<path d="M210.338 796.582H205.206V798.797H210.338V796.582Z" fill="#FFD8C1"/>
<path d="M201.378 796.582H198.458V798.797H201.378V796.582Z" fill="#FFD8C1"/>
<path d="M215.401 845.38H210.269V847.595H215.401V845.38Z" fill="#FFD8C1"/>
<path d="M216.02 796.582H213.101V798.797H216.02V796.582Z" fill="#FFD8C1"/>
<path d="M211.331 820.97H195.472V823.185H211.331V820.97Z" fill="#FFD8C1"/>
<path d="M225.312 942.998H222.038V945.213H225.312V942.998Z" fill="#FFD8C1"/>
<path d="M214.938 942.998H203.192V945.213H214.938V942.998Z" fill="#FFD8C1"/>
<path d="M206.709 869.79H194.964V872.005H206.709V869.79Z" fill="#FFD8C1"/>
<path d="M115.821 906.383H110.401V908.598H115.821V906.383Z" fill="#FFD8C1"/>
<path style="mix-blend-mode:overlay" d="M170.256 999.548V433.71H254.199V999.548" fill="url(#paint4_linear_107_127)"/>
<path d="M329.89 999.548V485.432H501.757V999.548" fill="url(#paint5_linear_107_127)"/>
<path style="mix-blend-mode:overlay" d="M329.89 999.548V485.432H339.933V999.548" fill="url(#paint6_linear_107_127)"/>
<path style="mix-blend-mode:overlay" d="M329.89 500.029H501.757V501.513H329.89V500.029ZM329.89 524.129H501.757V525.613H329.89V524.129ZM329.89 548.229H501.757V549.713H329.89V548.229ZM329.89 572.329H501.757V573.813H329.89V572.329ZM329.89 596.429H501.757V597.913H329.89V596.429ZM329.89 620.529H501.757V622.013H329.89V620.529ZM329.89 644.628H501.757V646.113H329.89V644.628ZM329.89 668.728H501.757V670.212H329.89V668.728ZM329.89 692.828H501.757V694.312H329.89V692.828ZM329.89 716.928H501.757V718.412H329.89V716.928ZM329.89 741.028H501.757V742.512H329.89V741.028ZM329.89 765.128H501.757V766.612H329.89V765.128ZM329.89 789.228H501.757V790.712H329.89V789.228ZM329.89 813.328H501.757V814.812H329.89V813.328ZM329.89 837.428H501.757V838.912H329.89V837.428ZM329.89 861.528H501.757V863.012H329.89V861.528ZM329.89 885.628H501.757V887.112H329.89V885.628ZM329.89 909.727H501.757V911.211H329.89V909.727ZM329.89 933.827H501.757V935.311H329.89V933.827ZM329.89 957.927H501.757V959.411H329.89V957.927ZM329.89 982.027H501.757V983.511H329.89V982.027Z" fill="url(#paint7_linear_107_127)"/>
<path style="mix-blend-mode:overlay" d="M371.497 524.151H339.933V646.002H371.497V524.151Z" fill="url(#paint8_linear_107_127)"/>
<path d="M373.421 505.479H370.391V507.694H373.421V505.479Z" fill="#E702FF"/>
<path d="M365.68 505.479H360.637V507.694H365.68V505.479Z" fill="#E702FF"/>
<path d="M366.122 613.463H361.345V615.678H366.122V613.463Z" fill="#E702FF"/>
<path d="M372.426 613.463H369.705V615.678H372.426V613.463Z" fill="#E702FF"/>
<path d="M360.637 628.902H357.916V631.117H360.637V628.902Z" fill="#E702FF"/>
<path d="M374.815 752.325H370.037V754.541H374.815V752.325Z" fill="#E702FF"/>
<path d="M378.885 675.197H364.109V677.412H378.885V675.197Z" fill="#E702FF"/>
<path d="M366.829 582.607H355.88V584.822H366.829V582.607Z" fill="#E702FF"/>
<path d="M369.107 899.14H366.386V901.355H369.107V899.14Z" fill="#E702FF"/>
<path d="M45.7899 999.548V595.255H-89.3809V999.548" fill="url(#paint9_linear_107_127)"/>
<path style="mix-blend-mode:overlay" d="M45.7912 999.548V595.255H31.8118V999.548" fill="url(#paint10_linear_107_127)"/>
<path style="mix-blend-mode:overlay" d="M45.7678 606.729H-89.3809V607.903H45.7678V606.729Z" fill="url(#paint11_linear_107_127)"/>
<path style="mix-blend-mode:overlay" d="M45.7678 625.69H-89.3809V626.864H45.7678V625.69Z" fill="url(#paint12_linear_107_127)"/>
<path style="mix-blend-mode:overlay" d="M45.7678 644.651H-89.3809V645.825H45.7678V644.651Z" fill="url(#paint13_linear_107_127)"/>
<path style="mix-blend-mode:overlay" d="M45.7678 663.612H-89.3809V664.786H45.7678V663.612Z" fill="url(#paint14_linear_107_127)"/>
<path style="mix-blend-mode:overlay" d="M45.7678 682.573H-89.3809V683.747H45.7678V682.573Z" fill="url(#paint15_linear_107_127)"/>
<path style="mix-blend-mode:overlay" d="M45.7678 701.534H-89.3809V702.708H45.7678V701.534Z" fill="url(#paint16_linear_107_127)"/>
<path style="mix-blend-mode:overlay" d="M45.7678 720.494H-89.3809V721.668H45.7678V720.494Z" fill="url(#paint17_linear_107_127)"/>
<path style="mix-blend-mode:overlay" d="M45.7678 739.455H-89.3809V740.629H45.7678V739.455Z" fill="url(#paint18_linear_107_127)"/>
<path style="mix-blend-mode:overlay" d="M45.7678 758.417H-89.3809V759.591H45.7678V758.417Z" fill="url(#paint19_linear_107_127)"/>
<path style="mix-blend-mode:overlay" d="M45.7678 777.377H-89.3809V778.551H45.7678V777.377Z" fill="url(#paint20_linear_107_127)"/>
<path style="mix-blend-mode:overlay" d="M45.7678 796.339H-89.3809V797.513H45.7678V796.339Z" fill="url(#paint21_linear_107_127)"/>
<path style="mix-blend-mode:overlay" d="M45.7678 815.299H-89.3809V816.473H45.7678V815.299Z" fill="url(#paint22_linear_107_127)"/>
<path style="mix-blend-mode:overlay" d="M45.7678 834.26H-89.3809V835.434H45.7678V834.26Z" fill="url(#paint23_linear_107_127)"/>
<path style="mix-blend-mode:overlay" d="M45.7678 853.221H-89.3809V854.395H45.7678V853.221Z" fill="url(#paint24_linear_107_127)"/>
<path style="mix-blend-mode:overlay" d="M45.7678 872.182H-89.3809V873.356H45.7678V872.182Z" fill="url(#paint25_linear_107_127)"/>
<path style="mix-blend-mode:overlay" d="M45.7678 891.121H-89.3809V892.295H45.7678V891.121Z" fill="url(#paint26_linear_107_127)"/>
<path style="mix-blend-mode:overlay" d="M45.7678 910.082H-89.3809V911.256H45.7678V910.082Z" fill="url(#paint27_linear_107_127)"/>
<path style="mix-blend-mode:overlay" d="M45.7678 929.043H-89.3809V930.217H45.7678V929.043Z" fill="url(#paint28_linear_107_127)"/>
<path style="mix-blend-mode:overlay" d="M45.7678 948.004H-89.3809V949.178H45.7678V948.004Z" fill="url(#paint29_linear_107_127)"/>
<path d="M8.82969 610.783H6.57349V612.998H8.82969V610.783Z" fill="#FFD8C1"/>
<path d="M1.68504 610.783H-6.45483V612.998H1.68504V610.783Z" fill="#FFD8C1"/>
<path d="M16.0841 610.783H12.3459V612.998H16.0841V610.783Z" fill="#FFD8C1"/>
<path d="M3.41102 695.708H-0.150146V697.923H3.41102V695.708Z" fill="#FFD8C1"/>
<path d="M15.5536 695.708H11.9924V697.923H15.5536V695.708Z" fill="#FFD8C1"/>
<path d="M9.33823 695.708H7.32544V697.923H9.33823V695.708Z" fill="#FFD8C1"/>
<path d="M18.1194 707.847H16.0845V710.062H18.1194V707.847Z" fill="#FFD8C1"/>
<path d="M9.09468 804.911H5.53345V807.126H9.09468V804.911Z" fill="#FFD8C1"/>
<path d="M13.5192 744.24H2.5481V746.455H13.5192V744.24Z" fill="#FFD8C1"/>
<path d="M19.6236 671.431H11.4836V673.646H19.6236V671.431Z" fill="#FFD8C1"/>
<path d="M5.13563 877.1H1.57446V879.315H5.13563V877.1Z" fill="#FFD8C1"/>
<path d="M11.7926 920.36H9.77979V922.575H11.7926V920.36Z" fill="#FFD8C1"/>
<path d="M275.012 999.548V708.134H412.506V999.548" fill="url(#paint30_linear_107_127)"/>
<path style="mix-blend-mode:overlay" d="M275.012 999.548V708.134H284.28V999.548" fill="url(#paint31_linear_107_127)"/>
<path style="mix-blend-mode:overlay" d="M275.012 716.219H412.505V714.004H275.012V716.219Z" fill="url(#paint32_linear_107_127)"/>
<path style="mix-blend-mode:overlay" d="M275.012 724.526H412.505V722.311H275.012V724.526Z" fill="url(#paint33_linear_107_127)"/>
<path style="mix-blend-mode:overlay" d="M275.012 732.81H412.505V730.595H275.012V732.81Z" fill="url(#paint34_linear_107_127)"/>
<path style="mix-blend-mode:overlay" d="M275.012 741.095H412.505V738.88H275.012V741.095Z" fill="url(#paint35_linear_107_127)"/>
<path style="mix-blend-mode:overlay" d="M275.012 749.379H412.505V747.164H275.012V749.379Z" fill="url(#paint36_linear_107_127)"/>
<path style="mix-blend-mode:overlay" d="M275.012 757.686H412.505V755.47H275.012V757.686Z" fill="url(#paint37_linear_107_127)"/>
<path style="mix-blend-mode:overlay" d="M275.012 765.97H412.505V763.755H275.012V765.97Z" fill="url(#paint38_linear_107_127)"/>
<path style="mix-blend-mode:overlay" d="M275.012 774.254H412.505V772.039H275.012V774.254Z" fill="url(#paint39_linear_107_127)"/>
<path style="mix-blend-mode:overlay" d="M275.012 782.538H412.505V780.323H275.012V782.538Z" fill="url(#paint40_linear_107_127)"/>
<path style="mix-blend-mode:overlay" d="M275.012 790.845H412.505V788.63H275.012V790.845Z" fill="url(#paint41_linear_107_127)"/>
<path style="mix-blend-mode:overlay" d="M275.012 799.129H412.505V796.914H275.012V799.129Z" fill="url(#paint42_linear_107_127)"/>
<path style="mix-blend-mode:overlay" d="M275.012 807.414H412.505V805.199H275.012V807.414Z" fill="url(#paint43_linear_107_127)"/>
<path style="mix-blend-mode:overlay" d="M275.012 815.698H412.505V813.483H275.012V815.698Z" fill="url(#paint44_linear_107_127)"/>
<path style="mix-blend-mode:overlay" d="M275.012 824.005H412.505V821.789H275.012V824.005Z" fill="url(#paint45_linear_107_127)"/>
<path style="mix-blend-mode:overlay" d="M275.012 832.289H412.505V830.074H275.012V832.289Z" fill="url(#paint46_linear_107_127)"/>
<path style="mix-blend-mode:overlay" d="M275.012 840.573H412.505V838.358H275.012V840.573Z" fill="url(#paint47_linear_107_127)"/>
<path style="mix-blend-mode:overlay" d="M275.012 848.857H412.505V846.642H275.012V848.857Z" fill="url(#paint48_linear_107_127)"/>
<path style="mix-blend-mode:overlay" d="M275.012 857.164H412.505V854.949H275.012V857.164Z" fill="url(#paint49_linear_107_127)"/>
<path style="mix-blend-mode:overlay" d="M275.012 865.448H412.505V863.233H275.012V865.448Z" fill="url(#paint50_linear_107_127)"/>
<path style="mix-blend-mode:overlay" d="M275.012 873.733H412.505V871.518H275.012V873.733Z" fill="url(#paint51_linear_107_127)"/>
<path style="mix-blend-mode:overlay" d="M275.012 882.017H412.505V879.802H275.012V882.017Z" fill="url(#paint52_linear_107_127)"/>
<path style="mix-blend-mode:overlay" d="M275.012 890.323H412.505V888.108H275.012V890.323Z" fill="url(#paint53_linear_107_127)"/>
<path style="mix-blend-mode:overlay" d="M275.012 898.608H412.505V896.393H275.012V898.608Z" fill="url(#paint54_linear_107_127)"/>
<path style="mix-blend-mode:overlay" d="M275.012 906.892H412.505V904.677H275.012V906.892Z" fill="url(#paint55_linear_107_127)"/>
<path style="mix-blend-mode:overlay" d="M275.012 915.177H412.505V912.962H275.012V915.177Z" fill="url(#paint56_linear_107_127)"/>
<path style="mix-blend-mode:overlay" d="M275.012 923.483H412.505V921.268H275.012V923.483Z" fill="url(#paint57_linear_107_127)"/>
<path style="mix-blend-mode:overlay" d="M275.012 931.767H412.505V929.552H275.012V931.767Z" fill="url(#paint58_linear_107_127)"/>
<path style="mix-blend-mode:overlay" d="M275.012 940.052H412.505V937.837H275.012V940.052Z" fill="url(#paint59_linear_107_127)"/>
<path style="mix-blend-mode:overlay" d="M275.012 948.336H412.505V946.121H275.012V948.336Z" fill="url(#paint60_linear_107_127)"/>
<path style="mix-blend-mode:overlay" d="M275.012 956.642H412.505V954.427H275.012V956.642Z" fill="url(#paint61_linear_107_127)"/>
<path d="M319.782 925.388H302.485V927.603H319.782V925.388Z" fill="#FFE9E1"/>
<path d="M328.099 925.388H324.56V927.603H328.099V925.388Z" fill="#FFE9E1"/>
<path d="M329.669 859.18H326.13V861.395H329.669V859.18Z" fill="#FFE9E1"/>
<path d="M334.004 925.388H331.991V927.603H334.004V925.388Z" fill="#FFE9E1"/>
<path d="M333.585 859.18H331.572V861.395H333.585V859.18Z" fill="#FFE9E1"/>
<path d="M333.342 767.919H329.803V770.134H333.342V767.919Z" fill="#FFE9E1"/>
<path d="M337.233 767.919H335.22V770.134H337.233V767.919Z" fill="#FFE9E1"/>
<path d="M327.523 767.919H316.619V770.134H327.523V767.919Z" fill="#FFE9E1"/>
<path d="M344.178 892.007H331.792V894.222H344.178V892.007Z" fill="#FFE9E1"/>
<path d="M306.378 717.925H299.189V720.14H306.378V717.925Z" fill="#FFE9E1"/>
<path d="M360.989 793.171H357.45V795.386H360.989V793.171Z" fill="#FFE9E1"/>
<path d="M373.775 950.219H370.236V952.434H373.775V950.219Z" fill="#FFE9E1"/>
<path d="M310.271 717.925H308.258V720.14H310.271V717.925Z" fill="#FFE9E1"/>
<path d="M363.003 742.668H360.99V744.883H363.003V742.668Z" fill="#FFE9E1"/>
<path d="M340.531 734.826H329.626V737.041H340.531V734.826Z" fill="#FFE9E1"/>
<path d="M351.899 793.171H340.994V795.386H351.899V793.171Z" fill="#FFE9E1"/>
<path d="M373.464 717.925H370.191V720.14H373.464V717.925Z" fill="#FFE9E1"/>
<path d="M348.845 826.153H340.772V828.368H348.845V826.153Z" fill="#FFE9E1"/>
<path d="M318.322 809.297H304.431V811.512H318.322V809.297Z" fill="#FFE9E1"/>
<path d="M68.1749 999.549V796.339H-11.6094V999.549" fill="url(#paint62_linear_107_127)"/>
<path style="mix-blend-mode:overlay" d="M68.1748 999.549V796.339H62.7998V999.549" fill="url(#paint63_linear_107_127)"/>
<path style="mix-blend-mode:overlay" d="M68.1749 800.436H-11.6094V801.987H68.1749V800.436Z" fill="url(#paint64_linear_107_127)"/>
<path style="mix-blend-mode:overlay" d="M68.1749 806.218H-11.6094V807.768H68.1749V806.218Z" fill="url(#paint65_linear_107_127)"/>
<path style="mix-blend-mode:overlay" d="M68.1749 811.999H-11.6094V813.549H68.1749V811.999Z" fill="url(#paint66_linear_107_127)"/>
<path style="mix-blend-mode:overlay" d="M68.1749 817.78H-11.6094V819.331H68.1749V817.78Z" fill="url(#paint67_linear_107_127)"/>
<path style="mix-blend-mode:overlay" d="M68.1749 823.561H-11.6094V825.112H68.1749V823.561Z" fill="url(#paint68_linear_107_127)"/>
<path style="mix-blend-mode:overlay" d="M68.1749 829.343H-11.6094V830.893H68.1749V829.343Z" fill="url(#paint69_linear_107_127)"/>
<path style="mix-blend-mode:overlay" d="M68.1749 835.124H-11.6094V836.675H68.1749V835.124Z" fill="url(#paint70_linear_107_127)"/>
<path style="mix-blend-mode:overlay" d="M68.1749 840.906H-11.6094V842.456H68.1749V840.906Z" fill="url(#paint71_linear_107_127)"/>
<path style="mix-blend-mode:overlay" d="M68.1749 846.687H-11.6094V848.237H68.1749V846.687Z" fill="url(#paint72_linear_107_127)"/>
<path style="mix-blend-mode:overlay" d="M68.1749 852.468H-11.6094V854.019H68.1749V852.468Z" fill="url(#paint73_linear_107_127)"/>
<path style="mix-blend-mode:overlay" d="M68.1749 858.249H-11.6094V859.8H68.1749V858.249Z" fill="url(#paint74_linear_107_127)"/>
<path style="mix-blend-mode:overlay" d="M68.1749 864.031H-11.6094V865.581H68.1749V864.031Z" fill="url(#paint75_linear_107_127)"/>
<path style="mix-blend-mode:overlay" d="M68.1749 869.812H-11.6094V871.363H68.1749V869.812Z" fill="url(#paint76_linear_107_127)"/>
<path style="mix-blend-mode:overlay" d="M68.1749 875.593H-11.6094V877.144H68.1749V875.593Z" fill="url(#paint77_linear_107_127)"/>
<path style="mix-blend-mode:overlay" d="M68.1749 881.375H-11.6094V882.925H68.1749V881.375Z" fill="url(#paint78_linear_107_127)"/>
<path style="mix-blend-mode:overlay" d="M68.1749 887.134H-11.6094V888.685H68.1749V887.134Z" fill="url(#paint79_linear_107_127)"/>
<path style="mix-blend-mode:overlay" d="M68.1749 892.915H-11.6094V894.466H68.1749V892.915Z" fill="url(#paint80_linear_107_127)"/>
<path style="mix-blend-mode:overlay" d="M68.1749 898.697H-11.6094V900.247H68.1749V898.697Z" fill="url(#paint81_linear_107_127)"/>
<path style="mix-blend-mode:overlay" d="M68.1749 904.478H-11.6094V906.028H68.1749V904.478Z" fill="url(#paint82_linear_107_127)"/>
<path style="mix-blend-mode:overlay" d="M68.1749 910.259H-11.6094V911.81H68.1749V910.259Z" fill="url(#paint83_linear_107_127)"/>
<path style="mix-blend-mode:overlay" d="M68.1749 916.04H-11.6094V917.591H68.1749V916.04Z" fill="url(#paint84_linear_107_127)"/>
<path style="mix-blend-mode:overlay" d="M68.1749 921.822H-11.6094V923.372H68.1749V921.822Z" fill="url(#paint85_linear_107_127)"/>
<path style="mix-blend-mode:overlay" d="M68.1749 927.603H-11.6094V929.153H68.1749V927.603Z" fill="url(#paint86_linear_107_127)"/>
<path style="mix-blend-mode:overlay" d="M68.1749 933.384H-11.6094V934.935H68.1749V933.384Z" fill="url(#paint87_linear_107_127)"/>
<path style="mix-blend-mode:overlay" d="M68.1749 939.166H-11.6094V940.716H68.1749V939.166Z" fill="url(#paint88_linear_107_127)"/>
<path style="mix-blend-mode:overlay" d="M68.1749 944.947H-11.6094V946.498H68.1749V944.947Z" fill="url(#paint89_linear_107_127)"/>
<path style="mix-blend-mode:overlay" d="M68.1749 950.728H-11.6094V952.279H68.1749V950.728Z" fill="url(#paint90_linear_107_127)"/>
<path style="mix-blend-mode:overlay" d="M68.1749 956.51H-11.6094V958.06H68.1749V956.51Z" fill="url(#paint91_linear_107_127)"/>
<path d="M52.227 947.494H42.1848V949.709H52.227V947.494Z" fill="#FFE9E1"/>
<path d="M39.4206 947.494H37.3635V949.709H39.4206V947.494Z" fill="#FFE9E1"/>
<path d="M38.5134 901.332H36.4563V903.547H38.5134V901.332Z" fill="#FFE9E1"/>
<path d="M35.1069 947.494H33.9346V949.709H35.1069V947.494Z" fill="#FFE9E1"/>
<path d="M35.3513 901.332H34.179V903.547H35.3513V901.332Z" fill="#FFE9E1"/>
<path d="M36.3903 837.694H34.3333V839.909H36.3903V837.694Z" fill="#FFE9E1"/>
<path d="M33.2478 837.694H32.0754V839.909H33.2478V837.694Z" fill="#FFE9E1"/>
<path d="M44.0207 837.694H37.6946V839.909H44.0207V837.694Z" fill="#FFE9E1"/>
<path d="M7.76764 802.828H3.07837V805.043H7.76764V802.828Z" fill="#FFE9E1"/>
<path d="M7.92266 889.415H2.90161V891.63H7.92266V889.415Z" fill="#FFE9E1"/>
<path d="M35.2398 924.236H28.051V926.451H35.2398V924.236Z" fill="#FFE9E1"/>
<path d="M54.1524 802.828H49.9719V805.043H54.1524V802.828Z" fill="#FFE9E1"/>
<path d="M5.00264 941.337H3.83032V943.552H5.00264V941.337Z" fill="#FFE9E1"/>
<path d="M20.3308 855.303H18.2737V857.519H20.3308V855.303Z" fill="#FFE9E1"/>
<path d="M48.8872 802.828H47.7148V805.043H48.8872V802.828Z" fill="#FFE9E1"/>
<path d="M18.2741 820.084H17.1018V822.299H18.2741V820.084Z" fill="#FFE9E1"/>
<path d="M36.4787 814.612H30.1526V816.827H36.4787V814.612Z" fill="#FFE9E1"/>
<path d="M29.8869 855.303H23.5608V857.519H29.8869V855.303Z" fill="#FFE9E1"/>
<path d="M12.9445 802.828H11.0422V805.043H12.9445V802.828Z" fill="#FFE9E1"/>
<path d="M30.0196 878.318H25.3303V880.533H30.0196V878.318Z" fill="#FFE9E1"/>
<path d="M51.0995 866.556H43.0481V868.771H51.0995V866.556Z" fill="#FFE9E1"/>
<path d="M369.594 999.548V835.611H208.057V999.548" fill="url(#paint92_linear_107_127)"/>
<path style="mix-blend-mode:overlay" d="M224.249 999.548V835.611H208.057V999.548" fill="url(#paint93_linear_107_127)"/>
<g style="mix-blend-mode:multiply" opacity="0.2">
<path d="M359.972 988.429V976.357H369.594V975.559H359.972V963.487H369.594V962.69H359.972V950.618H369.594V949.82H359.972V937.748H369.594V936.951H359.972V924.856H369.594V924.081H359.972V911.987H369.594V911.212H359.972V899.117H369.594V898.342H359.972V886.248H369.594V885.45H359.972V873.378H369.594V872.581H359.972V860.509H369.594V859.711H359.972V847.639H369.594V846.842H359.972V835.611H358.911V846.842H353.005V835.611H351.921V846.842H340.839V835.611H339.755V846.842H333.849V835.611H332.766V846.842H321.706V835.611H320.622V846.842H314.716V835.611H313.632V846.842H302.551V835.611H301.445V846.842H295.561V835.611H294.455V846.842H283.417V835.611H282.312V846.842H276.428V835.611H275.322V846.842H264.24V835.611H263.156V846.842H257.25V835.611H256.189V846.842H245.107V835.611H244.023V846.842H238.117V835.611H237.033V846.842H225.952V835.611H224.89V846.842H218.984V835.611H217.9V846.842H208.278V847.639H217.9V859.711H208.278V860.509H217.9V872.581H208.278V873.378H217.9V885.45H208.278V886.248H217.9V898.342H208.278V899.117H217.9V911.212H208.278V911.987H217.9V924.081H208.278V924.856H217.9V936.951H208.278V937.748H217.9V949.82H208.278V950.618H217.9V962.69H208.278V963.487H217.9V975.559H208.278V976.357H217.9V988.429" fill="#32024F"/>
</g>
<g style="mix-blend-mode:multiply" opacity="0.2">
<path d="M358.911 847.639H353.005V859.711H358.911V847.639Z" fill="#32024F"/>
</g>
<g style="mix-blend-mode:multiply" opacity="0.2">
<path d="M358.911 860.509H353.005V872.581H358.911V860.509Z" fill="#32024F"/>
</g>
<g style="mix-blend-mode:multiply" opacity="0.2">
<path d="M358.911 873.378H353.005V885.45H358.911V873.378Z" fill="#32024F"/>
</g>
<g style="mix-blend-mode:multiply" opacity="0.2">
<path d="M358.911 886.248H353.005V898.32H358.911V886.248Z" fill="#32024F"/>
</g>
<g style="mix-blend-mode:multiply" opacity="0.2">
<path d="M358.911 899.117H353.005V911.189H358.911V899.117Z" fill="#32024F"/>
</g>
<g style="mix-blend-mode:multiply" opacity="0.2">
<path d="M358.911 911.987H353.005V924.059H358.911V911.987Z" fill="#32024F"/>
</g>
<g style="mix-blend-mode:multiply" opacity="0.2">
<path d="M358.911 924.856H353.005V936.928H358.911V924.856Z" fill="#32024F"/>
</g>
<g style="mix-blend-mode:multiply" opacity="0.2">
<path d="M358.911 937.748H353.005V949.82H358.911V937.748Z" fill="#32024F"/>
</g>
<g style="mix-blend-mode:multiply" opacity="0.2">
<path d="M358.911 950.618H353.005V962.69H358.911V950.618Z" fill="#32024F"/>
</g>
<g style="mix-blend-mode:multiply" opacity="0.2">
<path d="M351.921 847.639H340.839V859.711H351.921V847.639Z" fill="#32024F"/>
</g>
<g style="mix-blend-mode:multiply" opacity="0.2">
<path d="M351.921 860.509H340.839V872.581H351.921V860.509Z" fill="#32024F"/>
</g>
<g style="mix-blend-mode:multiply" opacity="0.2">
<path d="M351.921 873.378H340.839V885.45H351.921V873.378Z" fill="#32024F"/>
</g>
<g style="mix-blend-mode:multiply" opacity="0.2">
<path d="M351.921 886.248H340.839V898.32H351.921V886.248Z" fill="#32024F"/>
</g>
<g style="mix-blend-mode:multiply" opacity="0.2">
<path d="M351.921 899.117H340.839V911.189H351.921V899.117Z" fill="#32024F"/>
</g>
<g style="mix-blend-mode:multiply" opacity="0.2">
<path d="M351.921 911.987H340.839V924.059H351.921V911.987Z" fill="#32024F"/>
</g>
<g style="mix-blend-mode:multiply" opacity="0.2">
<path d="M351.921 924.856H340.839V936.928H351.921V924.856Z" fill="#32024F"/>
</g>
<g style="mix-blend-mode:multiply" opacity="0.2">
<path d="M351.921 937.748H340.839V949.82H351.921V937.748Z" fill="#32024F"/>
</g>
<g style="mix-blend-mode:multiply" opacity="0.2">
<path d="M351.921 950.618H340.839V962.69H351.921V950.618Z" fill="#32024F"/>
</g>
<g style="mix-blend-mode:multiply" opacity="0.2">
<path d="M339.755 847.639H333.85V859.711H339.755V847.639Z" fill="#32024F"/>
</g>
<g style="mix-blend-mode:multiply" opacity="0.2">
<path d="M339.755 860.509H333.85V872.581H339.755V860.509Z" fill="#32024F"/>
</g>
<g style="mix-blend-mode:multiply" opacity="0.2">
<path d="M339.755 873.378H333.85V885.45H339.755V873.378Z" fill="#32024F"/>
</g>
<g style="mix-blend-mode:multiply" opacity="0.2">
<path d="M339.755 886.248H333.85V898.32H339.755V886.248Z" fill="#32024F"/>
</g>
<g style="mix-blend-mode:multiply" opacity="0.2">
<path d="M339.755 899.117H333.85V911.189H339.755V899.117Z" fill="#32024F"/>
</g>
<g style="mix-blend-mode:multiply" opacity="0.2">
<path d="M339.755 911.987H333.85V924.059H339.755V911.987Z" fill="#32024F"/>
</g>
<g style="mix-blend-mode:multiply" opacity="0.2">
<path d="M339.755 924.856H333.85V936.928H339.755V924.856Z" fill="#32024F"/>
</g>
<g style="mix-blend-mode:multiply" opacity="0.2">
<path d="M339.755 937.748H333.85V949.82H339.755V937.748Z" fill="#32024F"/>
</g>
<g style="mix-blend-mode:multiply" opacity="0.2">
<path d="M339.755 950.618H333.85V962.69H339.755V950.618Z" fill="#32024F"/>
</g>
<g style="mix-blend-mode:multiply" opacity="0.2">
<path d="M332.789 847.639H321.707V859.711H332.789V847.639Z" fill="#32024F"/>
</g>
<g style="mix-blend-mode:multiply" opacity="0.2">
<path d="M332.789 860.509H321.707V872.581H332.789V860.509Z" fill="#32024F"/>
</g>
<g style="mix-blend-mode:multiply" opacity="0.2">
<path d="M332.789 873.378H321.707V885.45H332.789V873.378Z" fill="#32024F"/>
</g>
<g style="mix-blend-mode:multiply" opacity="0.2">
<path d="M332.789 886.248H321.707V898.32H332.789V886.248Z" fill="#32024F"/>
</g>
<g style="mix-blend-mode:multiply" opacity="0.2">
<path d="M332.789 899.117H321.707V911.189H332.789V899.117Z" fill="#32024F"/>
</g>
<g style="mix-blend-mode:multiply" opacity="0.2">
<path d="M332.789 911.987H321.707V924.059H332.789V911.987Z" fill="#32024F"/>
</g>
<g style="mix-blend-mode:multiply" opacity="0.2">
<path d="M332.789 924.856H321.707V936.928H332.789V924.856Z" fill="#32024F"/>
</g>
<g style="mix-blend-mode:multiply" opacity="0.2">
<path d="M332.789 937.748H321.707V949.82H332.789V937.748Z" fill="#32024F"/>
</g>
<g style="mix-blend-mode:multiply" opacity="0.2">
<path d="M332.789 950.618H321.707V962.69H332.789V950.618Z" fill="#32024F"/>
</g>
<g style="mix-blend-mode:multiply" opacity="0.2">
<path d="M320.623 847.639H314.717V859.711H320.623V847.639Z" fill="#32024F"/>
</g>
<g style="mix-blend-mode:multiply" opacity="0.2">
<path d="M320.623 860.509H314.717V872.581H320.623V860.509Z" fill="#32024F"/>
</g>
<g style="mix-blend-mode:multiply" opacity="0.2">
<path d="M320.623 873.378H314.717V885.45H320.623V873.378Z" fill="#32024F"/>
</g>
<g style="mix-blend-mode:multiply" opacity="0.2">
<path d="M320.623 886.248H314.717V898.32H320.623V886.248Z" fill="#32024F"/>
</g>
<g style="mix-blend-mode:multiply" opacity="0.2">
<path d="M320.623 899.117H314.717V911.189H320.623V899.117Z" fill="#32024F"/>
</g>
<g style="mix-blend-mode:multiply" opacity="0.2">
<path d="M320.623 911.987H314.717V924.059H320.623V911.987Z" fill="#32024F"/>
</g>
<g style="mix-blend-mode:multiply" opacity="0.2">
<path d="M320.623 924.856H314.717V936.928H320.623V924.856Z" fill="#32024F"/>
</g>
<g style="mix-blend-mode:multiply" opacity="0.2">
<path d="M320.623 937.748H314.717V949.82H320.623V937.748Z" fill="#32024F"/>
</g>
<g style="mix-blend-mode:multiply" opacity="0.2">
<path d="M320.623 950.618H314.717V962.69H320.623V950.618Z" fill="#32024F"/>
</g>
<g style="mix-blend-mode:multiply" opacity="0.2">
<path d="M313.632 847.639H302.55V859.711H313.632V847.639Z" fill="#32024F"/>
</g>
<g style="mix-blend-mode:multiply" opacity="0.2">
<path d="M313.632 860.509H302.55V872.581H313.632V860.509Z" fill="#32024F"/>
</g>
<g style="mix-blend-mode:multiply" opacity="0.2">
<path d="M313.632 873.378H302.55V885.45H313.632V873.378Z" fill="#32024F"/>
</g>
<g style="mix-blend-mode:multiply" opacity="0.2">
<path d="M313.632 886.248H302.55V898.32H313.632V886.248Z" fill="#32024F"/>
</g>
<g style="mix-blend-mode:multiply" opacity="0.2">
<path d="M313.632 899.117H302.55V911.189H313.632V899.117Z" fill="#32024F"/>
</g>
<g style="mix-blend-mode:multiply" opacity="0.2">
<path d="M313.632 911.987H302.55V924.059H313.632V911.987Z" fill="#32024F"/>
</g>
<g style="mix-blend-mode:multiply" opacity="0.2">
<path d="M313.632 924.856H302.55V936.928H313.632V924.856Z" fill="#32024F"/>
</g>
<g style="mix-blend-mode:multiply" opacity="0.2">
<path d="M313.632 937.748H302.55V949.82H313.632V937.748Z" fill="#32024F"/>
</g>
<g style="mix-blend-mode:multiply" opacity="0.2">
<path d="M313.632 950.618H302.55V962.69H313.632V950.618Z" fill="#32024F"/>
</g>
<g style="mix-blend-mode:multiply" opacity="0.2">
<path d="M301.444 847.639H295.561V859.711H301.444V847.639Z" fill="#32024F"/>
</g>
<g style="mix-blend-mode:multiply" opacity="0.2">
<path d="M301.444 860.509H295.561V872.581H301.444V860.509Z" fill="#32024F"/>
</g>
<g style="mix-blend-mode:multiply" opacity="0.2">
<path d="M301.444 873.378H295.561V885.45H301.444V873.378Z" fill="#32024F"/>
</g>
<g style="mix-blend-mode:multiply" opacity="0.2">
<path d="M301.444 886.248H295.561V898.32H301.444V886.248Z" fill="#32024F"/>
</g>
<g style="mix-blend-mode:multiply" opacity="0.2">
<path d="M301.444 899.117H295.561V911.189H301.444V899.117Z" fill="#32024F"/>
</g>
<g style="mix-blend-mode:multiply" opacity="0.2">
<path d="M301.444 911.987H295.561V924.059H301.444V911.987Z" fill="#32024F"/>
</g>
<g style="mix-blend-mode:multiply" opacity="0.2">
<path d="M301.444 924.856H295.561V936.928H301.444V924.856Z" fill="#32024F"/>
</g>
<g style="mix-blend-mode:multiply" opacity="0.2">
<path d="M301.444 937.748H295.561V949.82H301.444V937.748Z" fill="#32024F"/>
</g>
<g style="mix-blend-mode:multiply" opacity="0.2">
<path d="M301.444 950.618H295.561V962.69H301.444V950.618Z" fill="#32024F"/>
</g>
<g style="mix-blend-mode:multiply" opacity="0.2">
<path d="M294.477 847.639H283.418V859.711H294.477V847.639Z" fill="#32024F"/>
</g>
<g style="mix-blend-mode:multiply" opacity="0.2">
<path d="M294.477 860.509H283.418V872.581H294.477V860.509Z" fill="#32024F"/>
</g>
<g style="mix-blend-mode:multiply" opacity="0.2">
<path d="M294.477 873.378H283.418V885.45H294.477V873.378Z" fill="#32024F"/>
</g>
<g style="mix-blend-mode:multiply" opacity="0.2">
<path d="M294.477 886.248H283.418V898.32H294.477V886.248Z" fill="#32024F"/>
</g>
<g style="mix-blend-mode:multiply" opacity="0.2">
<path d="M294.477 899.117H283.418V911.189H294.477V899.117Z" fill="#32024F"/>
</g>
<g style="mix-blend-mode:multiply" opacity="0.2">
<path d="M294.477 911.987H283.418V924.059H294.477V911.987Z" fill="#32024F"/>
</g>
<g style="mix-blend-mode:multiply" opacity="0.2">
<path d="M294.477 924.856H283.418V936.928H294.477V924.856Z" fill="#32024F"/>
</g>
<g style="mix-blend-mode:multiply" opacity="0.2">
<path d="M294.477 937.748H283.418V949.82H294.477V937.748Z" fill="#32024F"/>
</g>
<g style="mix-blend-mode:multiply" opacity="0.2">
<path d="M294.477 950.618H283.418V962.69H294.477V950.618Z" fill="#32024F"/>
</g>
<g style="mix-blend-mode:multiply" opacity="0.2">
<path d="M282.312 847.639H276.428V859.711H282.312V847.639Z" fill="#32024F"/>
</g>
<g style="mix-blend-mode:multiply" opacity="0.2">
<path d="M282.312 860.509H276.428V872.581H282.312V860.509Z" fill="#32024F"/>
</g>
<g style="mix-blend-mode:multiply" opacity="0.2">
<path d="M282.312 873.378H276.428V885.45H282.312V873.378Z" fill="#32024F"/>
</g>
<g style="mix-blend-mode:multiply" opacity="0.2">
<path d="M282.312 886.248H276.428V898.32H282.312V886.248Z" fill="#32024F"/>
</g>
<g style="mix-blend-mode:multiply" opacity="0.2">
<path d="M282.312 899.117H276.428V911.189H282.312V899.117Z" fill="#32024F"/>
</g>
<g style="mix-blend-mode:multiply" opacity="0.2">
<path d="M282.312 911.987H276.428V924.059H282.312V911.987Z" fill="#32024F"/>
</g>
<g style="mix-blend-mode:multiply" opacity="0.2">
<path d="M282.312 924.856H276.428V936.928H282.312V924.856Z" fill="#32024F"/>
</g>
<g style="mix-blend-mode:multiply" opacity="0.2">
<path d="M282.312 937.748H276.428V949.82H282.312V937.748Z" fill="#32024F"/>
</g>
<g style="mix-blend-mode:multiply" opacity="0.2">
<path d="M282.312 950.618H276.428V962.69H282.312V950.618Z" fill="#32024F"/>
</g>
<g style="mix-blend-mode:multiply" opacity="0.2">
<path d="M275.322 847.639H264.24V859.711H275.322V847.639Z" fill="#32024F"/>
</g>
<g style="mix-blend-mode:multiply" opacity="0.2">
<path d="M275.322 860.509H264.24V872.581H275.322V860.509Z" fill="#32024F"/>
</g>
<g style="mix-blend-mode:multiply" opacity="0.2">
<path d="M275.322 873.378H264.24V885.45H275.322V873.378Z" fill="#32024F"/>
</g>
<g style="mix-blend-mode:multiply" opacity="0.2">
<path d="M275.322 886.248H264.24V898.32H275.322V886.248Z" fill="#32024F"/>
</g>
<g style="mix-blend-mode:multiply" opacity="0.2">
<path d="M275.322 899.117H264.24V911.189H275.322V899.117Z" fill="#32024F"/>
</g>
<g style="mix-blend-mode:multiply" opacity="0.2">
<path d="M275.322 911.987H264.24V924.059H275.322V911.987Z" fill="#32024F"/>
</g>
<g style="mix-blend-mode:multiply" opacity="0.2">
<path d="M275.322 924.856H264.24V936.928H275.322V924.856Z" fill="#32024F"/>
</g>
<g style="mix-blend-mode:multiply" opacity="0.2">
<path d="M275.322 937.748H264.24V949.82H275.322V937.748Z" fill="#32024F"/>
</g>
<g style="mix-blend-mode:multiply" opacity="0.2">
<path d="M275.322 950.618H264.24V962.69H275.322V950.618Z" fill="#32024F"/>
</g>
<g style="mix-blend-mode:multiply" opacity="0.2">
<path d="M263.157 847.639H257.251V859.711H263.157V847.639Z" fill="#32024F"/>
</g>
<g style="mix-blend-mode:multiply" opacity="0.2">
<path d="M263.157 860.509H257.251V872.581H263.157V860.509Z" fill="#32024F"/>
</g>
<g style="mix-blend-mode:multiply" opacity="0.2">
<path d="M263.157 873.378H257.251V885.45H263.157V873.378Z" fill="#32024F"/>
</g>
<g style="mix-blend-mode:multiply" opacity="0.2">
<path d="M263.157 886.248H257.251V898.32H263.157V886.248Z" fill="#32024F"/>
</g>
<g style="mix-blend-mode:multiply" opacity="0.2">
<path d="M263.157 899.117H257.251V911.189H263.157V899.117Z" fill="#32024F"/>
</g>
<g style="mix-blend-mode:multiply" opacity="0.2">
<path d="M263.157 911.987H257.251V924.059H263.157V911.987Z" fill="#32024F"/>
</g>
<g style="mix-blend-mode:multiply" opacity="0.2">
<path d="M263.157 924.856H257.251V936.928H263.157V924.856Z" fill="#32024F"/>
</g>
<g style="mix-blend-mode:multiply" opacity="0.2">
<path d="M263.157 937.748H257.251V949.82H263.157V937.748Z" fill="#32024F"/>
</g>
<g style="mix-blend-mode:multiply" opacity="0.2">
<path d="M263.157 950.618H257.251V962.69H263.157V950.618Z" fill="#32024F"/>
</g>
<g style="mix-blend-mode:multiply" opacity="0.2">
<path d="M256.19 847.639H245.108V859.711H256.19V847.639Z" fill="#32024F"/>
</g>
<g style="mix-blend-mode:multiply" opacity="0.2">
<path d="M256.19 860.509H245.108V872.581H256.19V860.509Z" fill="#32024F"/>
</g>
<g style="mix-blend-mode:multiply" opacity="0.2">
<path d="M256.19 873.378H245.108V885.45H256.19V873.378Z" fill="#32024F"/>
</g>
<g style="mix-blend-mode:multiply" opacity="0.2">
<path d="M256.19 886.248H245.108V898.32H256.19V886.248Z" fill="#32024F"/>
</g>
<g style="mix-blend-mode:multiply" opacity="0.2">
<path d="M256.19 899.117H245.108V911.189H256.19V899.117Z" fill="#32024F"/>
</g>
<g style="mix-blend-mode:multiply" opacity="0.2">
<path d="M256.19 911.987H245.108V924.059H256.19V911.987Z" fill="#32024F"/>
</g>
<g style="mix-blend-mode:multiply" opacity="0.2">
<path d="M256.19 924.856H245.108V936.928H256.19V924.856Z" fill="#32024F"/>
</g>
<g style="mix-blend-mode:multiply" opacity="0.2">
<path d="M256.19 937.748H245.108V949.82H256.19V937.748Z" fill="#32024F"/>
</g>
<g style="mix-blend-mode:multiply" opacity="0.2">
<path d="M256.19 950.618H245.108V962.69H256.19V950.618Z" fill="#32024F"/>
</g>
<g style="mix-blend-mode:multiply" opacity="0.2">
<path d="M244.024 847.639H238.118V859.711H244.024V847.639Z" fill="#32024F"/>
</g>
<g style="mix-blend-mode:multiply" opacity="0.2">
<path d="M244.024 860.509H238.118V872.581H244.024V860.509Z" fill="#32024F"/>
</g>
<g style="mix-blend-mode:multiply" opacity="0.2">
<path d="M244.024 873.378H238.118V885.45H244.024V873.378Z" fill="#32024F"/>
</g>
<g style="mix-blend-mode:multiply" opacity="0.2">
<path d="M244.024 886.248H238.118V898.32H244.024V886.248Z" fill="#32024F"/>
</g>
<g style="mix-blend-mode:multiply" opacity="0.2">
<path d="M244.024 899.117H238.118V911.189H244.024V899.117Z" fill="#32024F"/>
</g>
<g style="mix-blend-mode:multiply" opacity="0.2">
<path d="M244.024 911.987H238.118V924.059H244.024V911.987Z" fill="#32024F"/>
</g>
<g style="mix-blend-mode:multiply" opacity="0.2">
<path d="M244.024 924.856H238.118V936.928H244.024V924.856Z" fill="#32024F"/>
</g>
<g style="mix-blend-mode:multiply" opacity="0.2">
<path d="M244.024 937.748H238.118V949.82H244.024V937.748Z" fill="#32024F"/>
</g>
<g style="mix-blend-mode:multiply" opacity="0.2">
<path d="M244.024 950.618H238.118V962.69H244.024V950.618Z" fill="#32024F"/>
</g>
<g style="mix-blend-mode:multiply" opacity="0.2">
<path d="M237.033 847.639H225.951V859.711H237.033V847.639Z" fill="#32024F"/>
</g>
<g style="mix-blend-mode:multiply" opacity="0.2">
<path d="M237.033 860.509H225.951V872.581H237.033V860.509Z" fill="#32024F"/>
</g>
<g style="mix-blend-mode:multiply" opacity="0.2">
<path d="M237.033 873.378H225.951V885.45H237.033V873.378Z" fill="#32024F"/>
</g>
<g style="mix-blend-mode:multiply" opacity="0.2">
<path d="M237.033 886.248H225.951V898.32H237.033V886.248Z" fill="#32024F"/>
</g>
<g style="mix-blend-mode:multiply" opacity="0.2">
<path d="M237.033 899.117H225.951V911.189H237.033V899.117Z" fill="#32024F"/>
</g>
<g style="mix-blend-mode:multiply" opacity="0.2">
<path d="M237.033 911.987H225.951V924.059H237.033V911.987Z" fill="#32024F"/>
</g>
<g style="mix-blend-mode:multiply" opacity="0.2">
<path d="M237.033 924.856H225.951V936.928H237.033V924.856Z" fill="#32024F"/>
</g>
<g style="mix-blend-mode:multiply" opacity="0.2">
<path d="M237.033 937.748H225.951V949.82H237.033V937.748Z" fill="#32024F"/>
</g>
<g style="mix-blend-mode:multiply" opacity="0.2">
<path d="M237.033 950.618H225.951V962.69H237.033V950.618Z" fill="#32024F"/>
</g>
<g style="mix-blend-mode:multiply" opacity="0.2">
<path d="M224.889 847.639H218.983V859.711H224.889V847.639Z" fill="#32024F"/>
</g>
<g style="mix-blend-mode:multiply" opacity="0.2">
<path d="M224.889 860.509H218.983V872.581H224.889V860.509Z" fill="#32024F"/>
</g>
<g style="mix-blend-mode:multiply" opacity="0.2">
<path d="M224.889 873.378H218.983V885.45H224.889V873.378Z" fill="#32024F"/>
</g>
<g style="mix-blend-mode:multiply" opacity="0.2">
<path d="M224.889 886.248H218.983V898.32H224.889V886.248Z" fill="#32024F"/>
</g>
<g style="mix-blend-mode:multiply" opacity="0.2">
<path d="M224.889 899.117H218.983V911.189H224.889V899.117Z" fill="#32024F"/>
</g>
<g style="mix-blend-mode:multiply" opacity="0.2">
<path d="M224.889 911.987H218.983V924.059H224.889V911.987Z" fill="#32024F"/>
</g>
<g style="mix-blend-mode:multiply" opacity="0.2">
<path d="M224.889 924.856H218.983V936.928H224.889V924.856Z" fill="#32024F"/>
</g>
<g style="mix-blend-mode:multiply" opacity="0.2">
<path d="M224.889 937.748H218.983V949.82H224.889V937.748Z" fill="#32024F"/>
</g>
<g style="mix-blend-mode:multiply" opacity="0.2">
<path d="M224.889 950.618H218.983V962.69H224.889V950.618Z" fill="#32024F"/>
</g>
<path d="M271.959 848.614H267.203V850.829H271.959V848.614Z" fill="#F3DF68"/>
<path d="M291.315 861.395H286.56V863.61H291.315V861.395Z" fill="#F3DF68"/>
<path d="M252.827 848.614H250.637V850.829H252.827V848.614Z" fill="#F3DF68"/>
<path d="M234.843 848.614H232.233V850.829H234.843V848.614Z" fill="#F3DF68"/>
<path d="M234.843 861.395H232.233V863.61H234.843V861.395Z" fill="#F3DF68"/>
<path d="M229.977 848.614H228.849V850.829H229.977V848.614Z" fill="#F3DF68"/>
<path d="M272.755 887.311H267.203V889.526H272.755V887.311Z" fill="#F3DF68"/>
<path d="M251.743 887.311H249.663V889.526H251.743V887.311Z" fill="#F3DF68"/>
<path d="M241.966 887.311H240.728V889.526H241.966V887.311Z" fill="#F3DF68"/>
<path d="M291.89 912.718H286.56V914.933H291.89V912.718Z" fill="#F3DF68"/>
<path d="M253.047 926.097H246.942V928.312H253.047V926.097Z" fill="#F3DF68"/>
<path d="M234.711 951.26H228.385V953.475H234.711V951.26Z" fill="#F3DF68"/>
<path d="M288.128 951.26H285.872V953.475H288.128V951.26Z" fill="#F3DF68"/>
<path d="M291.889 951.26H290.297V953.475H291.889V951.26Z" fill="#F3DF68"/>
<path d="M347.1 848.614H342.344V850.829H347.1V848.614Z" fill="#F3DF68"/>
<path d="M327.966 848.614H325.776V850.829H327.966V848.614Z" fill="#F3DF68"/>
<path d="M309.982 848.614H307.372V850.829H309.982V848.614Z" fill="#F3DF68"/>
<path d="M309.982 861.395H307.372V863.61H309.982V861.395Z" fill="#F3DF68"/>
<path d="M305.116 848.614H303.988V850.829H305.116V848.614Z" fill="#F3DF68"/>
<path d="M347.896 887.311H342.344V889.526H347.896V887.311Z" fill="#F3DF68"/>
<path d="M326.881 887.311H324.802V889.526H326.881V887.311Z" fill="#F3DF68"/>
<path d="M317.105 887.311H315.867V889.526H317.105V887.311Z" fill="#F3DF68"/>
<path d="M328.188 926.097H322.083V928.312H328.188V926.097Z" fill="#F3DF68"/>
<path d="M309.872 951.26H303.524V953.475H309.872V951.26Z" fill="#F3DF68"/>
<path d="M298.681 951.26H296.071V953.475H298.681V951.26Z" fill="#F3DF68"/>
<path d="M344.556 951.26H342.299V953.475H344.556V951.26Z" fill="#F3DF68"/>
<path d="M348.293 951.26H346.7V953.475H348.293V951.26Z" fill="#F3DF68"/>
<path style="mix-blend-mode:overlay" d="M369.594 999.548V879.425H269.969V999.548" fill="url(#paint94_linear_107_127)"/>
<path style="mix-blend-mode:overlay" d="M412.506 657.764H275.012V708.134H412.506V657.764Z" fill="url(#paint95_linear_107_127)"/>
<path d="M410.8 598.748C548.651 455.122 548.651 222.256 410.8 78.6295C272.95 -64.9974 49.4505 -64.9974 -88.3998 78.6295C-226.25 222.256 -226.25 455.122 -88.3998 598.748C49.4505 742.375 272.95 742.375 410.8 598.748Z" fill="url(#paint96_radial_107_127)"/>
</g>
</g>
<defs>
<linearGradient id="paint0_linear_107_127" x1="66.7597" y1="1004.91" x2="66.7597" y2="887.488" gradientUnits="userSpaceOnUse">
<stop stop-color="#F2FFFF"/>
<stop offset="1" stop-color="#93FFFD" stop-opacity="0"/>
</linearGradient>
<linearGradient id="paint1_linear_107_127" x1="81.9559" y1="360.436" x2="81.9559" y2="760.255" gradientUnits="userSpaceOnUse">
<stop stop-color="#751178"/>
<stop offset="0.06" stop-color="#6F0F74"/>
<stop offset="0.69" stop-color="#3C0457"/>
<stop offset="1" stop-color="#29004C"/>
</linearGradient>
<linearGradient id="paint2_linear_107_127" x1="170.256" y1="1109.81" x2="170.256" y2="435.283" gradientUnits="userSpaceOnUse">
<stop stop-color="#E43E8D"/>
<stop offset="0.17" stop-color="#C13281"/>
<stop offset="0.57" stop-color="#6F1764"/>
<stop offset="0.86" stop-color="#3C0652"/>
<stop offset="1" stop-color="#29004C"/>
</linearGradient>
<linearGradient id="paint3_linear_107_127" x1="170.056" y1="319.745" x2="170.056" y2="966.721" gradientUnits="userSpaceOnUse">
<stop stop-color="#F2FFFF"/>
<stop offset="1" stop-color="#93FFFD" stop-opacity="0"/>
</linearGradient>
<linearGradient id="paint4_linear_107_127" x1="212.216" y1="1025.66" x2="212.216" y2="452.272" gradientUnits="userSpaceOnUse">
<stop stop-color="#F2FFFF"/>
<stop offset="1" stop-color="#93FFFD" stop-opacity="0"/>
</linearGradient>
<linearGradient id="paint5_linear_107_127" x1="415.824" y1="1067" x2="415.824" y2="548.761" gradientUnits="userSpaceOnUse">
<stop stop-color="#931C47"/>
<stop offset="0.3" stop-color="#6F1248"/>
<stop offset="0.77" stop-color="#3C054B"/>
<stop offset="1" stop-color="#29004C"/>
</linearGradient>
<linearGradient id="paint6_linear_107_127" x1="334.911" y1="482.065" x2="334.911" y2="1023.54" gradientUnits="userSpaceOnUse">
<stop offset="0.27" stop-color="#F2FFFF"/>
<stop offset="1" stop-color="#93FFFD" stop-opacity="0"/>
</linearGradient>
<linearGradient id="paint7_linear_107_127" x1="309.408" y1="741.87" x2="543.629" y2="741.87" gradientUnits="userSpaceOnUse">
<stop stop-color="#F2FFFF"/>
<stop offset="1" stop-color="#93FFFD" stop-opacity="0"/>
</linearGradient>
<linearGradient id="paint8_linear_107_127" x1="355.726" y1="720.628" x2="355.726" y2="556.07" gradientUnits="userSpaceOnUse">
<stop stop-color="#F2FFFF"/>
<stop offset="1" stop-color="#93FFFD" stop-opacity="0"/>
</linearGradient>
<linearGradient id="paint9_linear_107_127" x1="-21.8065" y1="1133.71" x2="-21.8065" y2="574.965" gradientUnits="userSpaceOnUse">
<stop stop-color="#931C47"/>
<stop offset="0.3" stop-color="#6F1248"/>
<stop offset="0.77" stop-color="#3C054B"/>
<stop offset="1" stop-color="#29004C"/>
</linearGradient>
<linearGradient id="paint10_linear_107_127" x1="38.8015" y1="592.597" x2="38.8015" y2="1018.42" gradientUnits="userSpaceOnUse">
<stop offset="0.27" stop-color="#F2FFFF"/>
<stop offset="1" stop-color="#93FFFD" stop-opacity="0"/>
</linearGradient>
<linearGradient id="paint11_linear_107_127" x1="-105.484" y1="796.914" x2="78.7034" y2="796.914" gradientUnits="userSpaceOnUse">
<stop stop-color="#F2FFFF"/>
<stop offset="1" stop-color="#93FFFD" stop-opacity="0"/>
</linearGradient>
<linearGradient id="paint12_linear_107_127" x1="-105.484" y1="796.914" x2="78.7034" y2="796.914" gradientUnits="userSpaceOnUse">
<stop stop-color="#F2FFFF"/>
<stop offset="1" stop-color="#93FFFD" stop-opacity="0"/>
</linearGradient>
<linearGradient id="paint13_linear_107_127" x1="-105.484" y1="796.914" x2="78.7034" y2="796.914" gradientUnits="userSpaceOnUse">
<stop stop-color="#F2FFFF"/>
<stop offset="1" stop-color="#93FFFD" stop-opacity="0"/>
</linearGradient>
<linearGradient id="paint14_linear_107_127" x1="-105.484" y1="796.914" x2="78.7034" y2="796.914" gradientUnits="userSpaceOnUse">
<stop stop-color="#F2FFFF"/>
<stop offset="1" stop-color="#93FFFD" stop-opacity="0"/>
</linearGradient>
<linearGradient id="paint15_linear_107_127" x1="-105.484" y1="796.914" x2="78.7034" y2="796.914" gradientUnits="userSpaceOnUse">
<stop stop-color="#F2FFFF"/>
<stop offset="1" stop-color="#93FFFD" stop-opacity="0"/>
</linearGradient>
<linearGradient id="paint16_linear_107_127" x1="-105.484" y1="796.914" x2="78.7034" y2="796.914" gradientUnits="userSpaceOnUse">
<stop stop-color="#F2FFFF"/>
<stop offset="1" stop-color="#93FFFD" stop-opacity="0"/>
</linearGradient>
<linearGradient id="paint17_linear_107_127" x1="-105.484" y1="796.914" x2="78.7034" y2="796.914" gradientUnits="userSpaceOnUse">
<stop stop-color="#F2FFFF"/>
<stop offset="1" stop-color="#93FFFD" stop-opacity="0"/>
</linearGradient>
<linearGradient id="paint18_linear_107_127" x1="-105.484" y1="796.914" x2="78.7034" y2="796.914" gradientUnits="userSpaceOnUse">
<stop stop-color="#F2FFFF"/>
<stop offset="1" stop-color="#93FFFD" stop-opacity="0"/>
</linearGradient>
<linearGradient id="paint19_linear_107_127" x1="-105.484" y1="796.914" x2="78.7034" y2="796.914" gradientUnits="userSpaceOnUse">
<stop stop-color="#F2FFFF"/>
<stop offset="1" stop-color="#93FFFD" stop-opacity="0"/>
</linearGradient>
<linearGradient id="paint20_linear_107_127" x1="-105.484" y1="796.914" x2="78.7034" y2="796.914" gradientUnits="userSpaceOnUse">
<stop stop-color="#F2FFFF"/>
<stop offset="1" stop-color="#93FFFD" stop-opacity="0"/>
</linearGradient>
<linearGradient id="paint21_linear_107_127" x1="-105.484" y1="796.915" x2="78.7034" y2="796.915" gradientUnits="userSpaceOnUse">
<stop stop-color="#F2FFFF"/>
<stop offset="1" stop-color="#93FFFD" stop-opacity="0"/>
</linearGradient>
<linearGradient id="paint22_linear_107_127" x1="-105.484" y1="796.914" x2="78.7034" y2="796.914" gradientUnits="userSpaceOnUse">
<stop stop-color="#F2FFFF"/>
<stop offset="1" stop-color="#93FFFD" stop-opacity="0"/>
</linearGradient>
<linearGradient id="paint23_linear_107_127" x1="-105.484" y1="796.914" x2="78.7034" y2="796.914" gradientUnits="userSpaceOnUse">
<stop stop-color="#F2FFFF"/>
<stop offset="1" stop-color="#93FFFD" stop-opacity="0"/>
</linearGradient>
<linearGradient id="paint24_linear_107_127" x1="-105.484" y1="796.914" x2="78.7034" y2="796.914" gradientUnits="userSpaceOnUse">
<stop stop-color="#F2FFFF"/>
<stop offset="1" stop-color="#93FFFD" stop-opacity="0"/>
</linearGradient>
<linearGradient id="paint25_linear_107_127" x1="-105.484" y1="796.915" x2="78.7034" y2="796.915" gradientUnits="userSpaceOnUse">
<stop stop-color="#F2FFFF"/>
<stop offset="1" stop-color="#93FFFD" stop-opacity="0"/>
</linearGradient>
<linearGradient id="paint26_linear_107_127" x1="-105.484" y1="796.914" x2="78.7034" y2="796.914" gradientUnits="userSpaceOnUse">
<stop stop-color="#F2FFFF"/>
<stop offset="1" stop-color="#93FFFD" stop-opacity="0"/>
</linearGradient>
<linearGradient id="paint27_linear_107_127" x1="-105.484" y1="796.908" x2="78.7034" y2="796.908" gradientUnits="userSpaceOnUse">
<stop stop-color="#F2FFFF"/>
<stop offset="1" stop-color="#93FFFD" stop-opacity="0"/>
</linearGradient>
<linearGradient id="paint28_linear_107_127" x1="-105.484" y1="796.915" x2="78.7034" y2="796.915" gradientUnits="userSpaceOnUse">
<stop stop-color="#F2FFFF"/>
<stop offset="1" stop-color="#93FFFD" stop-opacity="0"/>
</linearGradient>
<linearGradient id="paint29_linear_107_127" x1="-105.484" y1="796.914" x2="78.7034" y2="796.914" gradientUnits="userSpaceOnUse">
<stop stop-color="#F2FFFF"/>
<stop offset="1" stop-color="#93FFFD" stop-opacity="0"/>
</linearGradient>
<linearGradient id="paint30_linear_107_127" x1="343.759" y1="1066.69" x2="343.759" y2="778.751" gradientUnits="userSpaceOnUse">
<stop stop-color="#931C47"/>
<stop offset="0.3" stop-color="#6F1248"/>
<stop offset="0.77" stop-color="#3C054B"/>
<stop offset="1" stop-color="#29004C"/>
</linearGradient>
<linearGradient id="paint31_linear_107_127" x1="279.635" y1="706.229" x2="279.635" y2="1013.15" gradientUnits="userSpaceOnUse">
<stop offset="0.27" stop-color="#F2FFFF"/>
<stop offset="1" stop-color="#93FFFD" stop-opacity="0"/>
</linearGradient>
<linearGradient id="paint32_linear_107_127" x1="428.873" y1="851.892" x2="241.501" y2="851.892" gradientUnits="userSpaceOnUse">
<stop stop-color="#F2FFFF"/>
<stop offset="1" stop-color="#93FFFD" stop-opacity="0"/>
</linearGradient>
<linearGradient id="paint33_linear_107_127" x1="428.873" y1="851.892" x2="241.501" y2="851.892" gradientUnits="userSpaceOnUse">
<stop stop-color="#F2FFFF"/>
<stop offset="1" stop-color="#93FFFD" stop-opacity="0"/>
</linearGradient>
<linearGradient id="paint34_linear_107_127" x1="428.873" y1="851.892" x2="241.501" y2="851.892" gradientUnits="userSpaceOnUse">
<stop stop-color="#F2FFFF"/>
<stop offset="1" stop-color="#93FFFD" stop-opacity="0"/>
</linearGradient>
<linearGradient id="paint35_linear_107_127" x1="428.873" y1="851.892" x2="241.501" y2="851.892" gradientUnits="userSpaceOnUse">
<stop stop-color="#F2FFFF"/>
<stop offset="1" stop-color="#93FFFD" stop-opacity="0"/>
</linearGradient>
<linearGradient id="paint36_linear_107_127" x1="428.873" y1="851.892" x2="241.501" y2="851.892" gradientUnits="userSpaceOnUse">
<stop stop-color="#F2FFFF"/>
<stop offset="1" stop-color="#93FFFD" stop-opacity="0"/>
</linearGradient>
<linearGradient id="paint37_linear_107_127" x1="428.873" y1="851.892" x2="241.501" y2="851.892" gradientUnits="userSpaceOnUse">
<stop stop-color="#F2FFFF"/>
<stop offset="1" stop-color="#93FFFD" stop-opacity="0"/>
</linearGradient>
<linearGradient id="paint38_linear_107_127" x1="428.873" y1="851.892" x2="241.501" y2="851.892" gradientUnits="userSpaceOnUse">
<stop stop-color="#F2FFFF"/>
<stop offset="1" stop-color="#93FFFD" stop-opacity="0"/>
</linearGradient>
<linearGradient id="paint39_linear_107_127" x1="428.873" y1="851.892" x2="241.501" y2="851.892" gradientUnits="userSpaceOnUse">
<stop stop-color="#F2FFFF"/>
<stop offset="1" stop-color="#93FFFD" stop-opacity="0"/>
</linearGradient>
<linearGradient id="paint40_linear_107_127" x1="428.873" y1="851.892" x2="241.501" y2="851.892" gradientUnits="userSpaceOnUse">
<stop stop-color="#F2FFFF"/>
<stop offset="1" stop-color="#93FFFD" stop-opacity="0"/>
</linearGradient>
<linearGradient id="paint41_linear_107_127" x1="428.873" y1="851.892" x2="241.501" y2="851.892" gradientUnits="userSpaceOnUse">
<stop stop-color="#F2FFFF"/>
<stop offset="1" stop-color="#93FFFD" stop-opacity="0"/>
</linearGradient>
<linearGradient id="paint42_linear_107_127" x1="428.873" y1="851.892" x2="241.501" y2="851.892" gradientUnits="userSpaceOnUse">
<stop stop-color="#F2FFFF"/>
<stop offset="1" stop-color="#93FFFD" stop-opacity="0"/>
</linearGradient>
<linearGradient id="paint43_linear_107_127" x1="428.873" y1="851.892" x2="241.501" y2="851.892" gradientUnits="userSpaceOnUse">
<stop stop-color="#F2FFFF"/>
<stop offset="1" stop-color="#93FFFD" stop-opacity="0"/>
</linearGradient>
<linearGradient id="paint44_linear_107_127" x1="428.873" y1="851.892" x2="241.501" y2="851.892" gradientUnits="userSpaceOnUse">
<stop stop-color="#F2FFFF"/>
<stop offset="1" stop-color="#93FFFD" stop-opacity="0"/>
</linearGradient>
<linearGradient id="paint45_linear_107_127" x1="428.873" y1="851.892" x2="241.501" y2="851.892" gradientUnits="userSpaceOnUse">
<stop stop-color="#F2FFFF"/>
<stop offset="1" stop-color="#93FFFD" stop-opacity="0"/>
</linearGradient>
<linearGradient id="paint46_linear_107_127" x1="428.873" y1="851.892" x2="241.501" y2="851.892" gradientUnits="userSpaceOnUse">
<stop stop-color="#F2FFFF"/>
<stop offset="1" stop-color="#93FFFD" stop-opacity="0"/>
</linearGradient>
<linearGradient id="paint47_linear_107_127" x1="428.873" y1="851.892" x2="241.501" y2="851.892" gradientUnits="userSpaceOnUse">
<stop stop-color="#F2FFFF"/>
<stop offset="1" stop-color="#93FFFD" stop-opacity="0"/>
</linearGradient>
<linearGradient id="paint48_linear_107_127" x1="428.873" y1="851.892" x2="241.501" y2="851.892" gradientUnits="userSpaceOnUse">
<stop stop-color="#F2FFFF"/>
<stop offset="1" stop-color="#93FFFD" stop-opacity="0"/>
</linearGradient>
<linearGradient id="paint49_linear_107_127" x1="428.873" y1="851.892" x2="241.501" y2="851.892" gradientUnits="userSpaceOnUse">
<stop stop-color="#F2FFFF"/>
<stop offset="1" stop-color="#93FFFD" stop-opacity="0"/>
</linearGradient>
<linearGradient id="paint50_linear_107_127" x1="428.873" y1="851.892" x2="241.501" y2="851.892" gradientUnits="userSpaceOnUse">
<stop stop-color="#F2FFFF"/>
<stop offset="1" stop-color="#93FFFD" stop-opacity="0"/>
</linearGradient>
<linearGradient id="paint51_linear_107_127" x1="428.873" y1="851.892" x2="241.501" y2="851.892" gradientUnits="userSpaceOnUse">
<stop stop-color="#F2FFFF"/>
<stop offset="1" stop-color="#93FFFD" stop-opacity="0"/>
</linearGradient>
<linearGradient id="paint52_linear_107_127" x1="428.873" y1="851.892" x2="241.501" y2="851.892" gradientUnits="userSpaceOnUse">
<stop stop-color="#F2FFFF"/>
<stop offset="1" stop-color="#93FFFD" stop-opacity="0"/>
</linearGradient>
<linearGradient id="paint53_linear_107_127" x1="428.873" y1="851.892" x2="241.501" y2="851.892" gradientUnits="userSpaceOnUse">
<stop stop-color="#F2FFFF"/>
<stop offset="1" stop-color="#93FFFD" stop-opacity="0"/>
</linearGradient>
<linearGradient id="paint54_linear_107_127" x1="428.873" y1="851.892" x2="241.501" y2="851.892" gradientUnits="userSpaceOnUse">
<stop stop-color="#F2FFFF"/>
<stop offset="1" stop-color="#93FFFD" stop-opacity="0"/>
</linearGradient>
<linearGradient id="paint55_linear_107_127" x1="428.873" y1="851.892" x2="241.501" y2="851.892" gradientUnits="userSpaceOnUse">
<stop stop-color="#F2FFFF"/>
<stop offset="1" stop-color="#93FFFD" stop-opacity="0"/>
</linearGradient>
<linearGradient id="paint56_linear_107_127" x1="428.873" y1="851.892" x2="241.501" y2="851.892" gradientUnits="userSpaceOnUse">
<stop stop-color="#F2FFFF"/>
<stop offset="1" stop-color="#93FFFD" stop-opacity="0"/>
</linearGradient>
<linearGradient id="paint57_linear_107_127" x1="428.873" y1="851.892" x2="241.501" y2="851.892" gradientUnits="userSpaceOnUse">
<stop stop-color="#F2FFFF"/>
<stop offset="1" stop-color="#93FFFD" stop-opacity="0"/>
</linearGradient>
<linearGradient id="paint58_linear_107_127" x1="428.873" y1="851.892" x2="241.501" y2="851.892" gradientUnits="userSpaceOnUse">
<stop stop-color="#F2FFFF"/>
<stop offset="1" stop-color="#93FFFD" stop-opacity="0"/>
</linearGradient>
<linearGradient id="paint59_linear_107_127" x1="428.873" y1="851.892" x2="241.501" y2="851.892" gradientUnits="userSpaceOnUse">
<stop stop-color="#F2FFFF"/>
<stop offset="1" stop-color="#93FFFD" stop-opacity="0"/>
</linearGradient>
<linearGradient id="paint60_linear_107_127" x1="428.873" y1="851.892" x2="241.501" y2="851.892" gradientUnits="userSpaceOnUse">
<stop stop-color="#F2FFFF"/>
<stop offset="1" stop-color="#93FFFD" stop-opacity="0"/>
</linearGradient>
<linearGradient id="paint61_linear_107_127" x1="428.873" y1="851.892" x2="241.501" y2="851.892" gradientUnits="userSpaceOnUse">
<stop stop-color="#F2FFFF"/>
<stop offset="1" stop-color="#93FFFD" stop-opacity="0"/>
</linearGradient>
<linearGradient id="paint62_linear_107_127" x1="28.2717" y1="1046.35" x2="28.2717" y2="845.58" gradientUnits="userSpaceOnUse">
<stop stop-color="#931C47"/>
<stop offset="0.3" stop-color="#6F1248"/>
<stop offset="0.77" stop-color="#3C054B"/>
<stop offset="1" stop-color="#29004C"/>
</linearGradient>
<linearGradient id="paint63_linear_107_127" x1="65.4762" y1="795.01" x2="65.4762" y2="1009.03" gradientUnits="userSpaceOnUse">
<stop offset="0.27" stop-color="#F2FFFF"/>
<stop offset="1" stop-color="#93FFFD" stop-opacity="0"/>
</linearGradient>
<linearGradient id="paint64_linear_107_127" x1="-21.1207" y1="896.594" x2="87.6177" y2="896.594" gradientUnits="userSpaceOnUse">
<stop stop-color="#F2FFFF"/>
<stop offset="1" stop-color="#93FFFD" stop-opacity="0"/>
</linearGradient>
<linearGradient id="paint65_linear_107_127" x1="-21.1207" y1="896.594" x2="87.6177" y2="896.594" gradientUnits="userSpaceOnUse">
<stop stop-color="#F2FFFF"/>
<stop offset="1" stop-color="#93FFFD" stop-opacity="0"/>
</linearGradient>
<linearGradient id="paint66_linear_107_127" x1="-21.1207" y1="896.594" x2="87.6177" y2="896.594" gradientUnits="userSpaceOnUse">
<stop stop-color="#F2FFFF"/>
<stop offset="1" stop-color="#93FFFD" stop-opacity="0"/>
</linearGradient>
<linearGradient id="paint67_linear_107_127" x1="-21.1207" y1="896.593" x2="87.6177" y2="896.593" gradientUnits="userSpaceOnUse">
<stop stop-color="#F2FFFF"/>
<stop offset="1" stop-color="#93FFFD" stop-opacity="0"/>
</linearGradient>
<linearGradient id="paint68_linear_107_127" x1="-21.1207" y1="896.593" x2="87.6177" y2="896.593" gradientUnits="userSpaceOnUse">
<stop stop-color="#F2FFFF"/>
<stop offset="1" stop-color="#93FFFD" stop-opacity="0"/>
</linearGradient>
<linearGradient id="paint69_linear_107_127" x1="-21.1207" y1="896.591" x2="87.6177" y2="896.591" gradientUnits="userSpaceOnUse">
<stop stop-color="#F2FFFF"/>
<stop offset="1" stop-color="#93FFFD" stop-opacity="0"/>
</linearGradient>
<linearGradient id="paint70_linear_107_127" x1="-21.1207" y1="896.593" x2="87.6177" y2="896.593" gradientUnits="userSpaceOnUse">
<stop stop-color="#F2FFFF"/>
<stop offset="1" stop-color="#93FFFD" stop-opacity="0"/>
</linearGradient>
<linearGradient id="paint71_linear_107_127" x1="-21.1207" y1="896.591" x2="87.6177" y2="896.591" gradientUnits="userSpaceOnUse">
<stop stop-color="#F2FFFF"/>
<stop offset="1" stop-color="#93FFFD" stop-opacity="0"/>
</linearGradient>
<linearGradient id="paint72_linear_107_127" x1="-21.1207" y1="896.593" x2="87.6177" y2="896.593" gradientUnits="userSpaceOnUse">
<stop stop-color="#F2FFFF"/>
<stop offset="1" stop-color="#93FFFD" stop-opacity="0"/>
</linearGradient>
<linearGradient id="paint73_linear_107_127" x1="-21.1207" y1="896.591" x2="87.6177" y2="896.591" gradientUnits="userSpaceOnUse">
<stop stop-color="#F2FFFF"/>
<stop offset="1" stop-color="#93FFFD" stop-opacity="0"/>
</linearGradient>
<linearGradient id="paint74_linear_107_127" x1="-21.1207" y1="896.593" x2="87.6177" y2="896.593" gradientUnits="userSpaceOnUse">
<stop stop-color="#F2FFFF"/>
<stop offset="1" stop-color="#93FFFD" stop-opacity="0"/>
</linearGradient>
<linearGradient id="paint75_linear_107_127" x1="-21.1207" y1="896.591" x2="87.6177" y2="896.591" gradientUnits="userSpaceOnUse">
<stop stop-color="#F2FFFF"/>
<stop offset="1" stop-color="#93FFFD" stop-opacity="0"/>
</linearGradient>
<linearGradient id="paint76_linear_107_127" x1="-21.1207" y1="896.593" x2="87.6177" y2="896.593" gradientUnits="userSpaceOnUse">
<stop stop-color="#F2FFFF"/>
<stop offset="1" stop-color="#93FFFD" stop-opacity="0"/>
</linearGradient>
<linearGradient id="paint77_linear_107_127" x1="-21.1207" y1="896.591" x2="87.6177" y2="896.591" gradientUnits="userSpaceOnUse">
<stop stop-color="#F2FFFF"/>
<stop offset="1" stop-color="#93FFFD" stop-opacity="0"/>
</linearGradient>
<linearGradient id="paint78_linear_107_127" x1="-21.1207" y1="896.593" x2="87.6177" y2="896.593" gradientUnits="userSpaceOnUse">
<stop stop-color="#F2FFFF"/>
<stop offset="1" stop-color="#93FFFD" stop-opacity="0"/>
</linearGradient>
<linearGradient id="paint79_linear_107_127" x1="-21.1207" y1="896.593" x2="87.6177" y2="896.593" gradientUnits="userSpaceOnUse">
<stop stop-color="#F2FFFF"/>
<stop offset="1" stop-color="#93FFFD" stop-opacity="0"/>
</linearGradient>
<linearGradient id="paint80_linear_107_127" x1="-21.1207" y1="896.592" x2="87.6177" y2="896.592" gradientUnits="userSpaceOnUse">
<stop stop-color="#F2FFFF"/>
<stop offset="1" stop-color="#93FFFD" stop-opacity="0"/>
</linearGradient>
<linearGradient id="paint81_linear_107_127" x1="-21.1207" y1="896.592" x2="87.6177" y2="896.592" gradientUnits="userSpaceOnUse">
<stop stop-color="#F2FFFF"/>
<stop offset="1" stop-color="#93FFFD" stop-opacity="0"/>
</linearGradient>
<linearGradient id="paint82_linear_107_127" x1="-21.1207" y1="896.592" x2="87.6177" y2="896.592" gradientUnits="userSpaceOnUse">
<stop stop-color="#F2FFFF"/>
<stop offset="1" stop-color="#93FFFD" stop-opacity="0"/>
</linearGradient>
<linearGradient id="paint83_linear_107_127" x1="-21.1207" y1="896.592" x2="87.6177" y2="896.592" gradientUnits="userSpaceOnUse">
<stop stop-color="#F2FFFF"/>
<stop offset="1" stop-color="#93FFFD" stop-opacity="0"/>
</linearGradient>
<linearGradient id="paint84_linear_107_127" x1="-21.1207" y1="896.592" x2="87.6177" y2="896.592" gradientUnits="userSpaceOnUse">
<stop stop-color="#F2FFFF"/>
<stop offset="1" stop-color="#93FFFD" stop-opacity="0"/>
</linearGradient>
<linearGradient id="paint85_linear_107_127" x1="-21.1207" y1="896.593" x2="87.6177" y2="896.593" gradientUnits="userSpaceOnUse">
<stop stop-color="#F2FFFF"/>
<stop offset="1" stop-color="#93FFFD" stop-opacity="0"/>
</linearGradient>
<linearGradient id="paint86_linear_107_127" x1="-21.1207" y1="896.591" x2="87.6177" y2="896.591" gradientUnits="userSpaceOnUse">
<stop stop-color="#F2FFFF"/>
<stop offset="1" stop-color="#93FFFD" stop-opacity="0"/>
</linearGradient>
<linearGradient id="paint87_linear_107_127" x1="-21.1207" y1="896.593" x2="87.6177" y2="896.593" gradientUnits="userSpaceOnUse">
<stop stop-color="#F2FFFF"/>
<stop offset="1" stop-color="#93FFFD" stop-opacity="0"/>
</linearGradient>
<linearGradient id="paint88_linear_107_127" x1="-21.1207" y1="896.591" x2="87.6177" y2="896.591" gradientUnits="userSpaceOnUse">
<stop stop-color="#F2FFFF"/>
<stop offset="1" stop-color="#93FFFD" stop-opacity="0"/>
</linearGradient>
<linearGradient id="paint89_linear_107_127" x1="-21.1207" y1="896.594" x2="87.6177" y2="896.594" gradientUnits="userSpaceOnUse">
<stop stop-color="#F2FFFF"/>
<stop offset="1" stop-color="#93FFFD" stop-opacity="0"/>
</linearGradient>
<linearGradient id="paint90_linear_107_127" x1="-21.1207" y1="896.591" x2="87.6177" y2="896.591" gradientUnits="userSpaceOnUse">
<stop stop-color="#F2FFFF"/>
<stop offset="1" stop-color="#93FFFD" stop-opacity="0"/>
</linearGradient>
<linearGradient id="paint91_linear_107_127" x1="-21.1207" y1="896.594" x2="87.6177" y2="896.594" gradientUnits="userSpaceOnUse">
<stop stop-color="#F2FFFF"/>
<stop offset="1" stop-color="#93FFFD" stop-opacity="0"/>
</linearGradient>
<linearGradient id="paint92_linear_107_127" x1="288.837" y1="1018.93" x2="288.837" y2="828.235" gradientUnits="userSpaceOnUse">
<stop stop-color="#FF543E"/>
<stop offset="1" stop-color="#82009F"/>
</linearGradient>
<linearGradient id="paint93_linear_107_127" x1="216.153" y1="833.839" x2="216.153" y2="1119.85" gradientUnits="userSpaceOnUse">
<stop offset="0.27" stop-color="#F2FFFF"/>
<stop offset="1" stop-color="#93FFFD" stop-opacity="0"/>
</linearGradient>
<linearGradient id="paint94_linear_107_127" x1="319.781" y1="1058.45" x2="319.781" y2="906.427" gradientUnits="userSpaceOnUse">
<stop stop-color="#F2FFFF"/>
<stop offset="1" stop-color="#93FFFD" stop-opacity="0"/>
</linearGradient>
<linearGradient id="paint95_linear_107_127" x1="343.759" y1="717.548" x2="343.759" y2="660.821" gradientUnits="userSpaceOnUse">
<stop stop-color="#F2FFFF"/>
<stop offset="1" stop-color="#93FFFD" stop-opacity="0"/>
</linearGradient>
<radialGradient id="paint96_radial_107_127" cx="0" cy="0" r="1" gradientUnits="userSpaceOnUse" gradientTransform="translate(149.79 560.589) scale(721.447 751.679)">
<stop offset="0.46" stop-color="white" stop-opacity="0"/>
<stop offset="0.54" stop-color="white" stop-opacity="0.01"/>
<stop offset="0.61" stop-color="white" stop-opacity="0.06"/>
<stop offset="0.68" stop-color="white" stop-opacity="0.13"/>
<stop offset="0.74" stop-color="white" stop-opacity="0.23"/>
<stop offset="0.8" stop-color="white" stop-opacity="0.36"/>
<stop offset="0.86" stop-color="white" stop-opacity="0.51"/>
<stop offset="0.92" stop-color="white" stop-opacity="0.7"/>
<stop offset="0.98" stop-color="white" stop-opacity="0.91"/>
<stop offset="1" stop-color="white"/>
</radialGradient>
<clipPath id="clip0_107_127">
<rect width="375" height="1611" fill="white" transform="translate(0 -317)"/>
</clipPath>
<clipPath id="clip1_107_127">
<rect width="706" height="960" fill="white" transform="translate(-100)"/>
</clipPath>
</defs>
</svg>
