<svg width="1440" height="2510" viewBox="0 0 1440 2510" fill="none" xmlns="http://www.w3.org/2000/svg">
<rect width="1440" height="2510" fill="#242323"/>
<g clip-path="url(#clip0_107_127)">
<rect width="1440" height="2510" fill="#002E21"/>
<path d="M1076.47 804.614V787.494H1093.58V798.965H1099.01H1112.48V761.587H1137.82V760.548V760.202V755.115V754.791V749.683V749.358V744.272V743.926V738.84V738.493H1139.46V737.584H1142.83V736.48H1151.35V737.584H1153.93V736.48H1157.06V737.584H1171.61V738.493H1173.26V738.84V743.926V744.272V749.358V749.683V754.791V755.115V756.544H1192.42V745.701H1195.45V756.544H1199.73V745.701H1202.76V756.544H1209.36V759.271V759.509V761.717V761.955V764.184V764.422V766.305H1220.18V797.796H1229.88V797.407V793.338V792.364V790.199V786.152V782.992V778.945V775.807V771.997H1236.97V771.673V770.049V769.205V767.582V766.76V765.136V764.292V762.669V761.825V760.202V759.358V757.734V756.912V755.289V754.444V752.821V751.977V750.354V749.51V747.886V747.064V745.441V744.597V742.973V742.129V740.506V739.662V738.039V737.216V735.593V734.749V733.126V732.282V730.658V729.814V728.191V727.347V725.724V724.901V723.278V722.434V720.811V719.966V718.343V717.499V715.876V715.053V713.43V712.586V710.422H1242.31V707.175H1250.19V708.82H1255.15V706.721H1257.41V701.028H1258.3V706.721H1259.51V701.028H1260.4V706.721H1265.59V709.383H1267.91V710.422H1269.91H1275.26V712.586V713.43V715.053V715.876V717.499V718.343V719.966V720.811V722.434V723.278V724.901V725.724V727.347V728.191V729.814V730.658V732.282V733.126V734.749V735.593V737.216V738.039V739.662V740.506V742.129V742.973V744.597V745.441V747.064V747.886V749.51V750.354V751.977V752.821V754.444V755.289V756.912V757.734V759.358V760.202V761.825V762.669V764.292V765.136V766.76V767.582V769.205V770.049V771.673V771.997H1288.76V735.528H1293.31V727.022H1310.54V730.767H1314.55V735.528H1315.94H1319.17V762.388H1325.31V751.782H1344.14V771.997H1348.11H1356.89V743.125H1370.95V711.785H1394.73V699.881H1428.63V691.808H1430.63V699.881H1433.38V691.808H1435.38V699.881H1448.72V710.595H1452.21V711.785H1458.2V715.811V716.157V719.469V719.815V723.105V723.473V726.762V727.109V730.42V730.767V734.078V734.424V737.714V738.06V741.372V741.718V745.03V745.376V748.666V749.034V752.323V752.67V755.981V756.327V759.639V759.985V763.275V763.621V766.933V767.279V770.59V770.937V774.227V774.595V777.884V778.231V780.265H1459.5V775.006H1460.85V772.603H1461.69V775.006H1466.25V777.819H1468.29V780.265H1473.21V778.036V776.802V773.447V772.214V768.859V767.647V764.292V763.059V759.704V758.47V755.115V753.882V750.527V749.293V745.939V744.705V741.35V740.138V736.783V735.55V732.195V730.961V727.607V726.373V723.018V721.784V718.43V717.196V713.841V712.629V709.275V708.041V705.898V704.686V703.452V700.098V698.864V695.509V694.276V689.947H1490.85V669.58H1503.21V648.673H1504.15V669.58H1507.73V655.144H1510.2V648.673H1511.22V655.144H1521.07V666.637H1523.52V669.58H1534.04V689.947H1542.24H1551.66V717.261H1561.09V709.491V708.798V698.171V697.479V686.852V686.159V675.532V674.84V664.213V663.52V652.893V652.201V641.574V640.881V630.254V629.562V618.935V618.242H1564.52V616.316H1594.87V614H1601.38V616.316H1606.76V614H1624.57V616.316H1631.57V618.242H1635V618.935V629.562V630.254V640.881V641.574V652.201V652.893V663.52V664.213V674.84V675.532V686.159V686.852V697.479V698.171V708.798V709.491V720.118V720.811V731.437V732.13V742.757V743.45V754.077V754.769V765.396V766.089V776.716V777.408V788.035V788.728V799.355V800.047V810.674V811.367V821.994V822.686V833.313V834.006V844.633V845.325V855H1093.58H1087.6H1051V804.614H1076.47Z" fill="#002E21"/>
<g filter="url(#filter0_f_107_127)">
<circle cx="720" cy="2350" r="342" fill="#018543"/>
</g>
<g filter="url(#filter1_f_107_127)">
<circle cx="71.5" cy="1460.5" r="260.5" fill="#018543"/>
</g>
<g filter="url(#filter2_f_107_127)">
<circle cx="63.5" cy="310.5" r="170.5" fill="#018543"/>
</g>
<g filter="url(#filter3_f_107_127)">
<circle cx="1513.5" cy="2347.5" r="260.5" fill="#018543"/>
</g>
</g>
<defs>
<filter id="filter0_f_107_127" x="-514.27" y="1115.73" width="2468.54" height="2468.54" filterUnits="userSpaceOnUse" color-interpolation-filters="sRGB">
<feFlood flood-opacity="0" result="BackgroundImageFix"/>
<feBlend mode="normal" in="SourceGraphic" in2="BackgroundImageFix" result="shape"/>
<feGaussianBlur stdDeviation="446.135" result="effect1_foregroundBlur_107_127"/>
</filter>
<filter id="filter1_f_107_127" x="-1081.27" y="307.73" width="2305.54" height="2305.54" filterUnits="userSpaceOnUse" color-interpolation-filters="sRGB">
<feFlood flood-opacity="0" result="BackgroundImageFix"/>
<feBlend mode="normal" in="SourceGraphic" in2="BackgroundImageFix" result="shape"/>
<feGaussianBlur stdDeviation="446.135" result="effect1_foregroundBlur_107_127"/>
</filter>
<filter id="filter2_f_107_127" x="-691" y="-444" width="1509" height="1509" filterUnits="userSpaceOnUse" color-interpolation-filters="sRGB">
<feFlood flood-opacity="0" result="BackgroundImageFix"/>
<feBlend mode="normal" in="SourceGraphic" in2="BackgroundImageFix" result="shape"/>
<feGaussianBlur stdDeviation="292" result="effect1_foregroundBlur_107_127"/>
</filter>
<filter id="filter3_f_107_127" x="360.73" y="1194.73" width="2305.54" height="2305.54" filterUnits="userSpaceOnUse" color-interpolation-filters="sRGB">
<feFlood flood-opacity="0" result="BackgroundImageFix"/>
<feBlend mode="normal" in="SourceGraphic" in2="BackgroundImageFix" result="shape"/>
<feGaussianBlur stdDeviation="446.135" result="effect1_foregroundBlur_107_127"/>
</filter>
<clipPath id="clip0_107_127">
<rect width="1440" height="2510" fill="white"/>
</clipPath>
</defs>
</svg>
